<?xml version="1.0" standalone="no"?>
<!DOCTYPE svg PUBLIC "-//W3C//DTD SVG 20010904//EN"
 "http://www.w3.org/TR/2001/REC-SVG-20010904/DTD/svg10.dtd">
<svg version="1.0" xmlns="http://www.w3.org/2000/svg"
 width="3000.000000pt" height="3000.000000pt" viewBox="0 0 3000.000000 3000.000000"
 preserveAspectRatio="xMidYMid meet">
<metadata>
Created by potrace 1.14, written by Peter Selinger 2001-2017
</metadata>
<g transform="translate(0.000000,3000.000000) scale(0.100000,-0.100000)"
fill="#000000" stroke="none">
<path d="M16834 26042 c5 -8 -1 -12 -16 -12 -48 0 -64 -3 -90 -22 -16 -11 -28
-16 -28 -13 0 4 -20 -15 -45 -40 -25 -26 -42 -51 -39 -56 3 -5 0 -9 -5 -9 -6
0 -10 -3 -9 -7 1 -5 -3 -18 -10 -30 -7 -13 -9 -23 -5 -23 4 0 1 -5 -7 -10 -8
-5 -10 -10 -4 -10 9 0 11 -31 4 -50 -6 -15 -4 -36 4 -47 5 -9 4 -13 -5 -13 -9
0 -10 -3 -4 -8 6 -4 11 -18 13 -32 1 -14 3 -31 4 -37 1 -7 6 -13 11 -13 5 0 4
-7 -3 -15 -11 -13 -8 -18 10 -17 3 0 5 -9 6 -21 1 -12 4 -40 8 -62 4 -22 8
-49 9 -60 1 -11 5 -23 9 -26 5 -3 9 -18 10 -35 1 -16 4 -33 8 -39 3 -5 7 -23
9 -40 2 -16 8 -36 14 -44 10 -12 9 -13 -2 -6 -11 6 -12 5 -5 -6 10 -16 13 -29
16 -76 2 -18 5 -33 8 -33 3 0 6 -15 7 -33 4 -44 7 -60 17 -76 7 -11 6 -12 -5
-6 -11 7 -12 6 -2 -6 10 -12 10 -18 0 -29 -9 -10 -9 -11 1 -6 12 7 13 1 16
-86 0 -16 3 -28 6 -28 4 0 5 -71 1 -107 0 -7 -10 -10 -23 -7 -13 3 -29 6 -35
6 -7 1 -13 5 -13 10 0 4 -9 8 -20 8 -11 0 -20 5 -20 11 0 5 -4 8 -8 5 -4 -2
-21 1 -37 9 -87 38 -137 55 -145 50 -6 -3 -10 1 -10 10 0 9 -4 13 -10 10 -5
-3 -31 4 -57 16 -26 12 -52 22 -58 23 -27 5 -55 18 -55 26 0 5 -9 7 -20 5 -11
-2 -20 1 -20 6 0 6 -4 7 -10 4 -5 -3 -10 -2 -10 4 0 6 -7 8 -15 5 -8 -4 -15
-1 -15 6 0 7 -7 10 -15 6 -8 -3 -15 -1 -15 4 0 6 -3 9 -7 8 -10 -2 -41 10 -75
28 -16 8 -28 12 -28 9 0 -4 -16 2 -36 14 -19 12 -32 16 -29 11 4 -6 -10 -1
-29 10 -20 11 -38 20 -41 20 -3 0 -10 0 -16 0 -5 0 -8 4 -5 9 4 5 -2 7 -12 4
-11 -2 -26 2 -34 11 -9 8 -18 12 -22 9 -3 -3 -12 0 -20 6 -8 7 -20 10 -26 6
-5 -3 -10 -1 -10 4 0 6 -6 11 -14 11 -7 0 -40 12 -72 26 -33 15 -70 28 -83 30
-13 2 -28 9 -32 16 -5 7 -9 9 -9 4 0 -5 -6 -3 -13 3 -8 6 -17 8 -20 4 -4 -3
-7 -1 -7 6 0 7 -3 10 -8 8 -4 -3 -25 3 -46 14 -21 10 -43 16 -47 13 -5 -3 -9
0 -9 6 0 7 -7 10 -15 6 -8 -3 -15 -2 -15 3 0 11 -42 29 -62 25 -10 -1 -18 2
-18 7 0 5 -9 9 -21 9 -13 0 -18 4 -13 12 5 7 3 8 -6 3 -7 -4 -16 -2 -21 6 -7
11 -9 11 -9 1 0 -8 -7 -6 -21 7 -12 11 -27 17 -35 14 -8 -3 -14 0 -14 6 0 6
-3 10 -7 9 -5 -1 -19 4 -32 11 -16 9 -21 9 -16 1 7 -11 -31 6 -45 20 -3 3 -14
7 -25 8 -11 2 -23 8 -26 14 -3 5 -10 9 -15 8 -8 -1 -21 2 -56 15 -19 6 -23 7
-30 6 -5 0 -8 4 -8 10 0 5 -4 7 -10 4 -5 -3 -10 -2 -10 4 0 5 -8 8 -17 7 -10
-2 -21 1 -24 6 -3 5 -15 10 -27 13 -12 2 -38 11 -59 20 -79 35 -115 49 -133
50 -8 0 -14 7 -12 15 2 11 0 11 -11 1 -12 -9 -16 -8 -20 4 -4 8 -13 12 -22 9
-8 -3 -15 -1 -15 5 0 6 -3 10 -7 9 -16 -3 -63 14 -74 28 -6 8 -15 12 -19 9 -5
-3 -21 0 -37 7 -15 6 -31 11 -35 10 -5 -1 -8 3 -8 9 0 5 -4 8 -9 4 -6 -3 -25
3 -43 13 -18 11 -41 18 -51 16 -9 -1 -17 2 -17 7 0 6 -5 7 -10 4 -6 -4 -18 -1
-27 7 -13 10 -17 11 -21 0 -3 -10 -7 -10 -20 0 -12 10 -14 10 -8 1 5 -9 -1
-13 -18 -14 -14 -1 -30 -3 -36 -4 -5 -1 -15 -3 -21 -4 -5 0 -7 -5 -4 -11 3 -6
-1 -7 -9 -4 -9 4 -16 1 -16 -6 0 -9 -4 -9 -17 1 -13 11 -15 11 -9 1 5 -8 -1
-22 -17 -36 -14 -13 -23 -27 -20 -30 4 -3 2 -6 -4 -6 -6 0 -16 -13 -23 -30 -7
-16 -16 -27 -21 -25 -4 3 -6 -4 -4 -15 2 -11 -3 -27 -11 -35 -12 -11 -12 -15
-2 -15 11 0 11 -2 0 -9 -8 -4 -13 -11 -13 -15 1 -3 1 -7 0 -8 -6 -20 -6 -38 0
-38 4 0 8 -7 8 -15 0 -8 -5 -15 -10 -15 -5 0 -4 -6 2 -14 6 -7 12 -25 13 -40
1 -14 6 -26 10 -26 4 0 8 -7 8 -15 0 -8 5 -15 10 -15 6 0 10 -5 10 -12 0 -14
12 -28 91 -105 29 -29 59 -53 67 -53 7 0 10 -4 7 -10 -3 -5 -2 -10 3 -10 5 0
19 -9 31 -19 12 -11 41 -34 63 -53 23 -18 60 -50 82 -70 22 -20 44 -34 48 -32
4 3 8 0 8 -6 0 -12 24 -40 34 -40 3 0 26 -20 51 -44 25 -24 45 -42 45 -39 0 3
7 0 15 -7 8 -7 12 -16 9 -21 -3 -5 -2 -9 3 -8 16 4 43 -13 43 -27 0 -8 10 -14
22 -14 12 0 19 -3 15 -6 -6 -6 16 -34 27 -34 4 0 20 -13 38 -30 17 -16 35 -30
40 -30 5 0 6 -4 3 -10 -3 -5 -2 -10 4 -10 6 0 24 -14 41 -30 17 -17 36 -27 42
-24 6 4 8 3 4 -4 -3 -5 9 -19 26 -31 18 -11 39 -29 46 -41 7 -11 17 -18 23
-15 5 4 8 2 7 -4 -2 -5 6 -16 17 -25 19 -15 19 -15 -5 -10 -14 3 -42 7 -62 7
-21 1 -38 5 -38 8 0 3 -12 4 -26 1 -21 -4 -25 -2 -19 9 7 11 6 12 -7 2 -8 -7
-18 -10 -21 -6 -4 3 -31 7 -60 8 -29 0 -58 5 -66 9 -7 4 -15 5 -18 2 -3 -3
-14 -1 -24 5 -14 7 -19 6 -19 -2 0 -7 -9 -4 -22 7 -12 10 -18 13 -14 7 4 -8 1
-13 -8 -13 -9 0 -16 5 -16 10 0 7 -6 7 -19 0 -12 -6 -22 -6 -26 -1 -3 6 -18 9
-33 7 -15 -1 -36 5 -46 13 -11 9 -16 10 -12 3 5 -8 1 -11 -13 -9 -11 2 -24 6
-27 10 -4 4 -13 2 -21 -4 -10 -9 -13 -8 -13 2 0 11 -2 11 -10 -1 -5 -8 -10
-10 -10 -3 0 6 -15 11 -32 12 -18 1 -49 3 -68 6 -19 3 -60 8 -90 10 -67 6 -82
8 -97 18 -6 4 -15 3 -18 -3 -5 -8 -11 -8 -20 0 -10 8 -15 8 -20 0 -5 -8 -11
-8 -19 -1 -7 6 -36 11 -64 12 -29 1 -49 6 -45 12 3 5 -2 6 -13 0 -17 -8 -40
-10 -46 -3 -4 3 -64 8 -138 10 -30 1 -61 7 -69 14 -12 9 -13 8 -7 -2 6 -10 2
-13 -15 -11 -13 2 -30 0 -36 -4 -8 -5 -13 -3 -13 5 0 7 -5 5 -11 -6 -9 -15
-13 -16 -20 -5 -6 10 -9 11 -9 2 0 -7 -9 -13 -20 -13 -11 0 -20 -5 -20 -11 0
-5 -4 -8 -9 -5 -5 4 -11 1 -13 -4 -2 -6 -12 -13 -23 -14 -11 -2 -19 -9 -18
-15 2 -6 -2 -11 -9 -11 -6 0 -8 -3 -4 -7 3 -4 -4 -13 -16 -20 -13 -7 -17 -12
-10 -13 7 0 10 -5 7 -10 -4 -6 -10 -8 -14 -6 -4 3 -8 -7 -9 -22 -1 -14 -9 -30
-18 -35 -10 -6 -12 -13 -6 -20 14 -18 21 -67 9 -67 -5 0 -5 -6 2 -13 6 -8 8
-17 4 -20 -3 -4 -1 -7 5 -7 7 0 12 -7 12 -16 0 -8 7 -22 15 -31 8 -8 13 -19
10 -24 -4 -5 -1 -9 6 -9 7 0 25 -14 40 -31 15 -17 31 -31 36 -32 4 -1 7 -6 5
-10 -1 -5 2 -6 7 -3 5 4 16 0 24 -8 8 -8 17 -12 21 -9 3 4 13 -2 22 -13 8 -10
12 -13 9 -6 -6 11 -3 11 13 1 12 -7 18 -17 15 -23 -3 -5 -1 -6 4 -3 13 8 83
-20 83 -33 0 -5 9 -7 20 -5 12 2 23 -2 27 -10 3 -8 9 -12 14 -9 5 3 9 0 9 -6
0 -6 4 -9 9 -5 5 3 13 0 16 -6 4 -5 13 -8 19 -6 7 3 19 -3 26 -13 8 -11 17
-17 21 -14 4 2 14 -2 22 -10 8 -8 17 -12 21 -9 3 4 6 0 6 -7 0 -7 3 -11 6 -7
7 6 81 -30 90 -44 3 -5 10 -7 15 -4 5 4 9 1 9 -4 0 -6 7 -11 15 -11 9 0 18 -6
21 -14 3 -8 12 -12 20 -9 8 3 14 0 14 -6 0 -6 4 -11 9 -11 18 0 80 -45 81 -58
0 -7 4 -11 10 -7 9 6 16 1 83 -62 20 -18 41 -33 48 -33 7 0 9 -3 6 -7 -4 -3 2
-13 13 -20 11 -8 18 -19 15 -24 -4 -5 1 -9 10 -9 9 0 14 -4 10 -9 -3 -5 2 -16
10 -24 8 -9 16 -24 18 -34 1 -10 5 -22 8 -28 19 -32 28 -112 15 -133 -4 -7 -5
-12 -1 -12 3 0 1 -9 -5 -21 -7 -11 -14 -18 -18 -15 -3 3 -16 -1 -29 -9 -13 -9
-23 -13 -23 -9 0 4 -7 1 -15 -6 -8 -6 -19 -9 -25 -5 -5 3 -10 1 -10 -5 0 -6
-11 -8 -25 -6 -14 3 -23 1 -20 -4 3 -4 -2 -10 -9 -13 -8 -3 -17 -1 -20 6 -3 9
-5 9 -5 0 -1 -7 -10 -13 -20 -13 -11 0 -23 -5 -27 -11 -4 -8 -9 -7 -15 2 -6
10 -9 11 -9 2 0 -7 -8 -13 -18 -13 -10 0 -23 -5 -30 -12 -9 -9 -12 -9 -12 3 0
11 -2 11 -9 1 -7 -11 -41 -19 -118 -25 -12 -1 -21 -6 -20 -12 1 -5 -8 -9 -20
-9 -14 1 -20 -3 -16 -12 4 -10 0 -12 -13 -7 -12 4 -15 3 -10 -5 4 -7 1 -12 -7
-12 -8 0 -17 -9 -20 -20 -3 -11 -13 -20 -22 -20 -9 0 -14 -4 -11 -8 3 -5 -1
-20 -9 -35 -8 -15 -11 -27 -8 -27 3 0 -2 -12 -12 -26 -9 -15 -12 -24 -7 -20 7
4 10 -7 8 -34 -2 -22 1 -40 6 -40 6 0 8 -7 4 -15 -3 -8 -2 -15 2 -15 10 0 32
-51 26 -61 -3 -5 2 -6 10 -3 11 4 16 0 16 -10 0 -9 6 -16 14 -16 8 0 17 -7 20
-16 3 -8 10 -13 14 -10 5 3 15 -4 22 -15 8 -10 20 -19 28 -19 7 0 22 -9 34
-20 12 -11 30 -20 40 -20 10 0 21 -7 24 -15 4 -8 9 -13 14 -10 4 2 17 -5 28
-16 12 -10 23 -19 24 -19 10 4 57 -21 61 -32 4 -10 6 -10 6 0 1 8 8 6 23 -8
12 -11 28 -20 35 -20 7 0 13 -4 13 -10 0 -5 9 -10 19 -10 11 0 21 -5 23 -10 2
-6 13 -12 25 -13 12 0 20 -4 18 -8 -5 -7 40 -29 60 -29 8 0 15 -7 15 -16 0 -8
-4 -12 -10 -9 -5 3 -10 2 -10 -2 0 -5 -9 -14 -21 -21 -17 -11 -20 -11 -14 0 3
7 -1 4 -9 -6 -9 -11 -16 -17 -16 -14 0 3 -23 -2 -50 -13 -28 -10 -61 -19 -74
-19 -14 0 -27 -6 -29 -12 -4 -10 -6 -10 -6 -1 -1 9 -8 10 -23 4 -13 -4 -33 -7
-45 -6 -13 1 -23 -1 -23 -4 0 -3 -11 -7 -25 -7 -16 -1 -23 2 -18 10 3 6 -3 2
-15 -8 -13 -11 -22 -14 -22 -7 0 8 -6 9 -17 3 -16 -8 -70 -14 -145 -16 -16 -1
-28 -4 -28 -7 0 -3 -12 -6 -27 -6 -55 -1 -154 -12 -164 -18 -5 -4 -17 -1 -26
7 -14 11 -16 11 -8 -1 6 -11 2 -13 -19 -9 -14 3 -26 1 -26 -5 0 -5 -6 -5 -13
2 -8 6 -17 8 -20 5 -3 -4 -49 -8 -102 -10 -52 -1 -99 -6 -105 -9 -5 -3 -10 -2
-10 3 0 5 -16 8 -35 8 -19 -1 -35 -4 -35 -7 0 -3 -7 -6 -15 -6 -8 0 -15 3 -15
7 0 8 -44 5 -59 -5 -6 -3 -11 -2 -11 4 0 7 -8 7 -25 1 -14 -5 -25 -6 -25 -2 0
4 -23 7 -50 7 -28 0 -50 -4 -50 -8 0 -5 -5 -5 -11 -1 -6 3 -88 8 -182 9 -95 2
-173 4 -174 5 -2 1 -23 2 -48 3 -25 0 -45 6 -45 11 0 6 -5 4 -10 -4 -5 -8 -10
-10 -10 -5 0 6 -12 11 -27 11 -16 1 -41 4 -58 8 -34 8 -94 18 -112 19 -7 0
-13 3 -13 6 0 4 -11 8 -26 9 -14 1 -34 6 -44 12 -10 6 -30 11 -44 12 -15 1
-26 5 -26 9 0 3 -6 6 -12 7 -32 3 -50 10 -59 23 -7 12 -9 12 -9 -1 0 -9 -3
-11 -8 -5 -7 10 -27 17 -49 18 -7 0 -13 5 -13 10 0 6 -3 8 -6 4 -8 -8 -65 13
-59 23 3 4 -4 6 -15 3 -11 -3 -27 0 -35 7 -8 7 -15 9 -15 5 0 -4 -6 -2 -14 4
-7 6 -25 12 -41 13 -15 2 -29 8 -32 14 -2 7 -12 10 -23 7 -10 -3 -21 0 -24 6
-4 6 -23 11 -42 11 -26 0 -34 4 -34 18 0 14 -2 15 -10 2 -6 -9 -10 -11 -10 -3
0 7 -7 10 -15 7 -8 -4 -15 -2 -15 3 0 5 -8 9 -17 10 -21 2 -41 7 -65 17 -9 4
-21 5 -27 2 -5 -4 -14 2 -20 11 -6 10 -11 13 -11 6 0 -13 -60 5 -72 22 -5 6
-8 5 -8 -3 0 -10 -5 -10 -20 -2 -11 6 -24 8 -29 6 -5 -3 -12 1 -15 10 -5 13
-9 14 -20 5 -8 -7 -17 -8 -19 -4 -3 5 -18 10 -34 11 -29 3 -68 9 -68 12 0 4
-43 11 -90 14 -27 3 -50 5 -50 6 0 13 -314 18 -319 5 -2 -5 -5 -4 -5 3 -1 9
-7 10 -18 4 -10 -4 -28 -7 -41 -6 -12 0 -25 -3 -28 -8 -3 -5 -11 -4 -19 2 -9
8 -15 8 -20 0 -3 -6 -10 -8 -15 -5 -5 3 -11 1 -15 -4 -3 -6 -12 -8 -20 -4 -8
3 -15 1 -15 -5 0 -5 -11 -8 -25 -7 -14 2 -25 -1 -25 -6 0 -5 -5 -9 -11 -9 -5
0 -7 6 -3 13 4 6 -1 5 -12 -4 -10 -9 -29 -15 -41 -14 -12 1 -20 -2 -17 -6 4
-7 -53 -25 -68 -21 -5 1 -8 -2 -8 -8 0 -5 -4 -10 -9 -10 -5 0 -24 -6 -42 -14
-19 -8 -38 -14 -42 -14 -5 -1 -14 -8 -21 -18 -7 -9 -18 -14 -24 -10 -7 4 -12
2 -12 -3 0 -6 -6 -11 -14 -11 -7 0 -19 -7 -26 -15 -7 -8 -16 -12 -21 -10 -4 3
-12 -3 -18 -12 -6 -11 -11 -13 -11 -5 0 7 -5 10 -10 7 -6 -4 -8 -11 -5 -16 4
-5 0 -9 -7 -9 -7 0 -37 -16 -65 -35 -29 -19 -57 -35 -63 -35 -6 0 -8 -4 -5
-10 6 -9 -8 -14 -28 -11 -5 1 -6 -3 -3 -8 6 -9 -22 -26 -36 -23 -5 1 -8 -4 -8
-12 0 -8 -5 -18 -12 -22 -7 -5 -9 -2 -3 7 4 8 -7 -1 -24 -19 -18 -18 -37 -29
-43 -26 -6 4 -9 3 -7 -2 5 -8 -36 -54 -57 -63 -18 -9 -33 -29 -26 -36 4 -4 3
-5 -3 -3 -5 1 -27 -14 -48 -35 -21 -20 -43 -37 -48 -37 -5 0 -8 -4 -7 -9 2 -5
-8 -20 -22 -34 -51 -52 -69 -75 -63 -81 4 -3 -1 -6 -11 -6 -9 0 -14 -5 -11
-10 3 -6 0 -12 -7 -15 -8 -3 -25 -23 -38 -45 -14 -22 -28 -40 -32 -40 -5 0 -8
-7 -8 -15 0 -9 -7 -18 -15 -21 -8 -4 -13 -10 -10 -14 3 -5 -3 -13 -12 -19 -10
-6 -14 -11 -9 -11 5 0 3 -7 -4 -15 -7 -8 -16 -12 -21 -9 -5 3 -6 -3 -2 -12 4
-11 3 -15 -4 -11 -7 5 -9 -1 -5 -15 4 -17 2 -20 -12 -15 -9 4 -15 3 -12 -2 3
-4 -8 -29 -24 -55 -16 -25 -27 -46 -23 -46 4 0 -2 -7 -13 -16 -10 -8 -12 -13
-4 -9 12 5 12 4 -1 -7 -14 -12 -29 -41 -28 -54 0 -4 -4 -10 -9 -13 -13 -8
-112 -201 -104 -201 4 0 1 -4 -6 -9 -7 -4 -14 -14 -16 -22 -1 -8 -8 -24 -14
-36 -7 -13 -10 -23 -7 -23 4 0 -1 -7 -9 -16 -9 -8 -14 -19 -11 -24 3 -5 1 -10
-4 -12 -5 -1 -11 -12 -13 -23 -1 -11 -10 -26 -18 -33 -10 -9 -10 -11 -1 -7 9
5 8 -1 -4 -19 -10 -14 -13 -26 -9 -26 5 0 3 -4 -3 -8 -7 -4 -14 -19 -17 -32
-2 -14 -9 -24 -15 -23 -5 2 -8 -4 -5 -12 4 -9 1 -22 -6 -30 -7 -8 -9 -15 -5
-15 4 0 2 -7 -5 -15 -6 -8 -9 -18 -6 -24 3 -5 2 -11 -4 -13 -5 -1 -11 -14 -14
-28 -2 -14 -5 -27 -6 -30 -2 -3 -2 -8 -1 -12 0 -5 -3 -8 -8 -8 -5 0 -12 -7
-15 -16 -4 -10 -2 -13 7 -8 9 6 9 5 0 -7 -6 -8 -12 -18 -13 -24 -1 -5 -6 -21
-11 -34 -5 -13 -11 -31 -12 -40 -1 -9 -6 -22 -10 -28 -5 -7 -6 -17 -3 -22 3
-5 -1 -14 -9 -21 -7 -6 -12 -17 -9 -25 3 -7 1 -16 -4 -19 -6 -3 -8 -15 -5 -26
3 -12 0 -20 -8 -20 -7 0 -10 -3 -7 -6 4 -3 2 -20 -3 -37 -6 -18 -13 -43 -16
-57 -7 -36 -9 -43 -16 -60 -6 -14 -17 -71 -19 -97 -1 -7 -7 -14 -13 -17 -8 -3
-10 -15 -7 -31 3 -17 0 -30 -9 -36 -12 -7 -12 -9 0 -9 11 0 11 -3 0 -16 -7 -9
-14 -28 -15 -43 -1 -14 -2 -26 -4 -26 -1 0 -3 -9 -5 -20 -13 -75 -17 -92 -22
-105 -3 -8 -7 -22 -7 -30 -1 -8 -5 -21 -9 -27 -5 -8 -3 -13 3 -13 6 0 4 -7 -5
-16 -13 -14 -14 -19 -3 -25 8 -6 9 -9 2 -9 -7 0 -14 -15 -17 -32 -3 -18 -8
-44 -12 -58 -4 -14 -7 -35 -6 -47 0 -13 -3 -23 -8 -23 -5 0 -8 -8 -8 -17 0
-42 -4 -54 -14 -47 -8 5 -8 1 0 -14 7 -14 8 -23 1 -27 -6 -4 -8 -11 -5 -16 4
-5 2 -9 -2 -9 -8 0 -12 -17 -14 -62 0 -10 -4 -18 -9 -18 -4 0 -7 -8 -5 -17 1
-10 0 -22 -4 -28 -3 -5 -7 -19 -9 -30 -2 -11 -5 -25 -6 -31 -1 -7 -6 -18 -12
-25 -6 -8 -9 -24 -8 -36 0 -13 -2 -23 -7 -23 -5 0 -6 -7 -3 -15 4 -8 1 -15 -5
-15 -6 0 -8 -6 -5 -14 3 -8 0 -17 -5 -21 -6 -3 -9 -10 -6 -15 3 -5 0 -21 -6
-37 -14 -32 -15 -39 -17 -71 -1 -13 -5 -21 -9 -19 -5 3 -9 -5 -10 -16 -4 -36
-9 -56 -16 -63 -4 -4 -7 -18 -7 -31 0 -15 -4 -22 -11 -17 -7 4 -9 0 -5 -14 4
-11 2 -23 -4 -27 -6 -3 -8 -10 -5 -15 3 -5 -2 -21 -11 -35 -9 -14 -14 -25 -11
-25 3 0 0 -15 -8 -34 -8 -18 -11 -36 -8 -40 4 -3 1 -6 -6 -6 -7 0 -10 -4 -6
-9 3 -5 1 -12 -5 -16 -6 -4 -8 -10 -5 -15 3 -5 1 -11 -5 -15 -6 -4 -8 -11 -5
-16 4 -5 1 -9 -6 -9 -7 0 -9 -3 -6 -7 4 -3 3 -11 -1 -17 -5 -6 -14 -30 -22
-53 -7 -24 -17 -43 -23 -43 -5 0 -7 -7 -3 -15 3 -8 -2 -22 -12 -31 -9 -10 -17
-22 -18 -28 0 -6 -2 -17 -2 -24 -1 -7 -7 -10 -14 -6 -6 4 -8 3 -5 -3 6 -10
-40 -114 -55 -124 -5 -3 -9 -9 -8 -13 4 -13 -22 -66 -30 -61 -5 3 -7 -3 -6
-12 2 -10 -6 -26 -16 -35 -11 -9 -18 -18 -17 -20 5 -7 -13 -48 -22 -48 -5 0
-9 -6 -9 -14 0 -8 -6 -21 -14 -28 -7 -8 -17 -24 -20 -36 -4 -13 -12 -19 -18
-16 -6 4 -8 2 -5 -3 4 -6 -2 -22 -13 -35 -11 -14 -17 -28 -13 -31 3 -4 -2 -9
-11 -13 -9 -3 -14 -10 -11 -14 3 -4 -2 -10 -10 -14 -8 -3 -15 -12 -15 -19 0
-8 -13 -30 -30 -48 -16 -19 -30 -43 -30 -53 0 -11 -3 -17 -6 -13 -7 6 -45 -45
-57 -75 -3 -10 -11 -18 -17 -18 -5 0 -10 -7 -10 -15 0 -8 -4 -15 -10 -15 -5 0
-10 -7 -10 -16 0 -8 -4 -13 -8 -10 -4 2 -14 -9 -21 -25 -7 -16 -17 -27 -22
-23 -5 3 -9 -4 -9 -15 0 -11 -9 -25 -20 -31 -11 -6 -18 -15 -15 -21 4 -5 2 -9
-3 -9 -5 0 -15 -11 -22 -25 -7 -13 -17 -22 -22 -19 -4 3 -8 -2 -8 -10 0 -8
-10 -24 -22 -36 -12 -11 -18 -20 -13 -20 5 0 0 -6 -11 -14 -10 -8 -19 -20 -19
-28 -1 -7 -6 -12 -12 -11 -7 2 -15 -6 -18 -17 -4 -11 -11 -20 -17 -20 -6 0 -9
-3 -5 -6 5 -5 -16 -35 -56 -76 -9 -10 -14 -18 -10 -18 3 0 -4 -8 -15 -19 -12
-10 -22 -22 -22 -27 0 -5 -9 -17 -20 -27 -12 -10 -18 -22 -15 -27 3 -5 -4 -11
-15 -15 -11 -4 -18 -11 -15 -16 4 -5 1 -9 -4 -9 -6 0 -11 -7 -11 -15 0 -7 -6
-18 -14 -22 -8 -4 -16 -15 -18 -23 -2 -8 -12 -20 -23 -27 -11 -7 -14 -12 -7
-13 7 0 2 -11 -13 -25 -14 -14 -25 -31 -25 -38 0 -7 -9 -19 -19 -27 -11 -7
-18 -17 -15 -22 3 -4 0 -8 -6 -8 -6 0 -8 -4 -5 -10 3 -5 1 -10 -5 -10 -6 0 -9
-4 -6 -9 3 -5 -1 -12 -10 -15 -9 -4 -14 -9 -11 -12 3 -4 -5 -23 -18 -44 -13
-21 -21 -40 -18 -44 3 -3 -1 -8 -10 -12 -9 -3 -13 -12 -10 -20 3 -8 0 -14 -7
-14 -6 0 -8 -5 -5 -10 4 -6 2 -16 -3 -23 -5 -7 -8 -20 -7 -29 2 -10 0 -18 -5
-18 -5 0 -7 -11 -5 -25 1 -14 -1 -25 -4 -25 -4 0 -7 -11 -7 -25 0 -14 4 -25 9
-25 6 0 6 -5 0 -12 -10 -14 -10 -55 0 -65 4 -3 2 -14 -4 -24 -7 -13 -6 -19 1
-19 8 0 8 -6 0 -20 -6 -11 -7 -20 -2 -20 5 0 8 -22 8 -50 -1 -27 3 -50 7 -50
5 0 5 -6 -2 -13 -7 -10 -7 -17 0 -24 8 -8 5 -14 -10 -22 -11 -6 -24 -10 -28
-10 -4 1 -15 0 -23 -4 -8 -3 -37 -11 -65 -17 -27 -7 -59 -14 -70 -17 -11 -2
-26 -5 -32 -5 -7 -1 -13 -6 -13 -11 0 -6 -3 -8 -6 -5 -8 9 -125 -32 -159 -56
-45 -32 -64 -57 -78 -106 -12 -38 -12 -51 0 -85 14 -42 72 -110 107 -126 11
-6 41 -21 65 -34 l44 -23 -39 -11 c-21 -6 -64 -17 -94 -25 -30 -8 -67 -19 -82
-25 -16 -6 -28 -9 -28 -7 0 3 -25 -4 -55 -15 -30 -10 -63 -21 -72 -23 -10 -1
-26 -6 -35 -10 -9 -4 -22 -9 -30 -10 -39 -8 -74 -20 -85 -29 -7 -5 -13 -7 -13
-3 0 10 -107 -41 -127 -61 -30 -30 -50 -67 -47 -85 1 -10 -3 -18 -9 -18 -8 0
-8 -3 -2 -8 6 -4 11 -14 11 -22 6 -63 57 -106 149 -123 17 -3 16 -6 -10 -17
-16 -8 -41 -22 -54 -32 -13 -10 -27 -15 -32 -12 -5 3 -9 1 -9 -4 0 -5 -8 -13
-17 -16 -35 -13 -73 -37 -73 -47 0 -6 -4 -8 -8 -5 -15 9 -74 -64 -87 -108 -14
-44 -11 -80 8 -103 5 -7 6 -13 2 -13 -22 0 72 -71 107 -81 43 -11 184 -14 313
-5 146 10 231 17 265 22 19 3 53 7 75 9 53 6 111 13 160 21 35 6 38 5 26 -10
-7 -9 -17 -16 -22 -16 -4 0 -35 -18 -68 -40 -33 -22 -63 -40 -66 -40 -4 0 -13
-6 -20 -12 -33 -29 -45 -38 -53 -38 -10 0 -62 -57 -78 -86 -6 -10 -11 -38 -12
-60 -2 -35 4 -48 31 -75 53 -55 62 -58 208 -54 74 2 149 6 167 10 32 6 33 6
16 -14 -10 -11 -21 -18 -26 -15 -4 3 -8 -3 -8 -12 0 -10 -2 -15 -6 -12 -3 3
-21 -10 -41 -28 -20 -19 -40 -34 -44 -34 -5 0 -9 -7 -9 -15 0 -8 -3 -14 -7
-13 -15 3 -43 -14 -37 -23 3 -5 -1 -9 -8 -9 -8 0 -21 -8 -29 -17 -9 -10 -38
-36 -64 -58 -27 -22 -61 -52 -77 -67 -15 -15 -28 -25 -28 -22 0 4 -9 -4 -20
-17 -10 -13 -19 -20 -20 -16 0 4 -6 2 -14 -5 -8 -7 -12 -16 -9 -20 2 -5 0 -8
-5 -8 -4 0 -23 -13 -42 -30 -18 -16 -37 -27 -43 -23 -6 3 -7 2 -4 -4 3 -5 -3
-17 -14 -26 -10 -9 -19 -15 -19 -13 0 2 -25 -19 -55 -48 -75 -70 -88 -81 -97
-79 -5 2 -8 -4 -8 -12 0 -8 -7 -15 -15 -15 -8 0 -15 -7 -15 -16 0 -8 -4 -13
-9 -9 -6 3 -14 -3 -20 -13 -5 -10 -21 -24 -35 -32 -14 -7 -26 -20 -26 -27 0
-8 -4 -11 -10 -8 -5 3 -10 -1 -10 -9 0 -9 -3 -15 -7 -14 -10 3 -73 -58 -73
-71 0 -6 -8 -7 -17 -4 -13 5 -15 2 -10 -11 4 -10 3 -15 -3 -11 -6 3 -10 1 -10
-5 0 -6 -4 -8 -10 -5 -6 3 -10 2 -10 -3 0 -13 -60 -77 -61 -66 0 5 -4 -1 -10
-14 -5 -13 -13 -20 -19 -17 -6 4 -9 1 -8 -7 2 -7 -3 -12 -9 -11 -7 2 -12 0
-12 -5 3 -19 -2 -33 -11 -27 -5 3 -10 0 -10 -7 0 -7 -13 -24 -30 -38 -16 -14
-30 -29 -30 -33 0 -5 -11 -18 -25 -29 -14 -11 -25 -26 -25 -34 0 -8 -10 -14
-22 -14 -17 0 -19 -3 -9 -9 11 -7 9 -10 -8 -16 -13 -4 -20 -9 -17 -12 3 -3 -4
-14 -16 -24 -11 -11 -18 -19 -14 -19 4 0 -4 -11 -16 -24 -13 -13 -27 -21 -32
-18 -5 3 -6 1 -3 -5 3 -5 -8 -26 -26 -45 -18 -19 -40 -47 -51 -61 -10 -15 -23
-24 -29 -20 -5 3 -7 1 -4 -4 4 -6 -4 -22 -18 -37 -13 -14 -21 -26 -17 -26 4 0
-2 -7 -12 -15 -11 -8 -16 -15 -12 -15 5 0 -2 -9 -15 -20 -13 -10 -20 -19 -16
-20 4 0 2 -6 -5 -14 -7 -8 -16 -12 -20 -9 -5 2 -8 -3 -8 -11 0 -9 -5 -16 -11
-16 -5 0 -8 -4 -4 -9 3 -6 -3 -14 -12 -20 -10 -6 -15 -11 -11 -11 7 0 -10 -25
-39 -55 -7 -7 -9 -15 -6 -19 4 -3 1 -6 -6 -6 -7 0 -10 -4 -7 -9 3 -5 -1 -11
-9 -15 -8 -3 -15 -10 -15 -16 0 -6 -7 -18 -15 -27 -8 -8 -13 -19 -9 -24 3 -5
0 -8 -8 -7 -7 2 -12 -3 -11 -9 2 -7 -2 -13 -9 -13 -6 0 -9 -3 -5 -6 3 -3 -3
-15 -13 -27 -11 -11 -17 -24 -14 -29 3 -4 -2 -11 -10 -14 -9 -3 -16 -15 -16
-25 0 -10 -5 -19 -11 -19 -5 0 -7 -4 -4 -10 3 -5 2 -10 -3 -10 -9 0 -37 -50
-34 -62 1 -5 -3 -8 -8 -8 -6 0 -10 -4 -10 -9 0 -5 -15 -36 -34 -69 -19 -33
-32 -63 -28 -66 3 -3 0 -6 -6 -6 -6 0 -13 -14 -17 -30 -4 -16 -10 -30 -15 -30
-5 0 -11 -13 -15 -29 -3 -16 -12 -35 -20 -41 -7 -6 -12 -22 -10 -35 1 -14 -1
-23 -5 -20 -7 4 -50 -91 -50 -112 0 -6 -6 -13 -14 -16 -9 -4 -12 -14 -9 -26 3
-12 1 -21 -6 -21 -5 0 -8 -7 -5 -15 4 -8 2 -15 -3 -15 -5 0 -10 -7 -11 -15 -1
-8 -3 -22 -4 -30 -1 -8 -5 -15 -9 -15 -5 0 -6 -7 -3 -15 4 -8 1 -15 -4 -15 -6
0 -9 -9 -7 -20 2 -11 0 -20 -6 -20 -5 0 -9 -9 -9 -19 0 -11 -4 -22 -8 -25 -5
-3 -8 -19 -7 -36 1 -16 -2 -30 -7 -30 -6 0 -8 -6 -5 -12 2 -7 0 -24 -6 -38 -5
-14 -11 -36 -12 -50 -2 -14 -4 -25 -5 -25 -1 0 -10 -69 -13 -115 -1 -14 -6
-31 -10 -37 -5 -8 -4 -13 2 -13 6 0 8 -6 6 -13 -11 -28 -12 -126 -1 -131 8 -3
8 -7 0 -13 -13 -9 -15 -43 -3 -43 5 0 4 -11 -1 -25 -5 -14 -6 -25 -1 -25 4 0
7 -12 5 -26 -1 -15 2 -37 6 -50 7 -17 6 -24 -3 -24 -8 0 -7 -4 3 -10 8 -5 11
-10 6 -10 -5 0 -4 -6 3 -13 8 -10 7 -17 -1 -25 -7 -7 -8 -12 -2 -12 5 0 11
-11 12 -26 1 -14 6 -33 10 -42 5 -9 8 -29 7 -44 0 -16 3 -28 8 -28 5 0 7 -9 4
-20 -3 -10 -1 -20 4 -22 4 -2 11 -18 14 -36 3 -18 12 -51 20 -75 7 -23 16 -54
19 -69 2 -14 10 -37 17 -50 7 -12 12 -24 11 -25 -1 -2 -2 -4 -1 -5 0 -2 2 -14
5 -28 2 -14 7 -32 11 -40 6 -16 11 -31 16 -52 1 -7 5 -17 8 -23 3 -5 12 -30
19 -55 7 -25 18 -51 24 -59 8 -11 8 -13 -1 -8 -6 4 -2 -12 9 -35 12 -24 25
-51 30 -62 7 -14 6 -16 -4 -10 -7 4 -4 -2 6 -14 11 -12 16 -22 12 -22 -3 0 0
-13 8 -29 9 -16 12 -31 9 -35 -4 -3 -1 -6 6 -6 7 0 10 -4 7 -9 -3 -4 1 -16 8
-27 8 -10 12 -24 9 -31 -3 -7 0 -13 7 -13 6 0 8 -4 5 -10 -3 -5 -2 -10 3 -10
5 0 9 -7 10 -15 1 -8 3 -22 4 -30 1 -8 5 -15 10 -15 4 0 8 -9 8 -20 0 -11 5
-20 11 -20 5 0 8 -3 5 -8 -2 -4 6 -29 18 -54 13 -26 18 -45 12 -42 -6 3 -2 -2
8 -10 11 -9 17 -16 13 -16 -4 0 2 -16 13 -35 11 -20 20 -42 20 -50 0 -8 5 -15
10 -15 6 0 10 -9 10 -20 0 -11 5 -20 10 -20 6 0 10 -9 10 -19 0 -11 4 -21 9
-23 5 -1 11 -12 13 -23 1 -11 10 -25 18 -32 8 -7 11 -13 5 -13 -5 0 -4 -4 3
-9 7 -4 14 -17 15 -29 0 -11 5 -18 9 -16 4 3 8 -2 8 -10 0 -9 5 -16 11 -16 5
0 8 -4 4 -9 -3 -5 -1 -12 5 -16 6 -4 8 -11 5 -16 -4 -5 -2 -9 4 -9 5 0 15 -16
22 -35 7 -19 17 -35 22 -35 4 0 5 -5 2 -10 -3 -5 -1 -10 5 -10 6 0 8 -5 5 -10
-3 -6 -2 -10 3 -10 9 0 25 -37 23 -52 -1 -5 7 -8 17 -8 14 0 15 -2 2 -10 -13
-8 -13 -10 2 -10 11 0 16 -6 13 -20 -2 -13 2 -20 11 -20 9 0 14 -6 11 -12 -2
-7 5 -21 16 -31 11 -9 15 -17 9 -17 -7 0 -3 -9 8 -20 11 -11 20 -27 20 -35 0
-8 5 -15 10 -15 6 0 10 -6 10 -14 0 -7 7 -19 15 -26 9 -7 14 -18 12 -23 -2 -6
7 -21 20 -35 13 -14 21 -27 19 -29 -2 -3 3 -13 12 -24 9 -11 16 -22 15 -24 -2
-3 6 -14 17 -25 12 -12 18 -25 15 -30 -4 -6 -2 -10 2 -10 13 0 43 -56 35 -65
-4 -5 -1 -5 6 -1 7 4 12 1 12 -8 0 -9 5 -16 10 -16 6 0 10 -7 10 -15 0 -8 5
-15 10 -15 6 0 10 -6 10 -14 0 -7 7 -19 15 -26 8 -7 12 -16 9 -21 -3 -5 2 -12
10 -15 9 -3 13 -10 10 -15 -3 -5 0 -9 5 -9 6 0 11 -7 11 -15 0 -8 5 -15 10
-15 6 0 10 -7 10 -15 0 -8 5 -15 10 -15 6 0 10 -7 10 -15 0 -8 5 -15 10 -15 6
0 10 -7 10 -15 0 -7 8 -19 18 -24 9 -6 13 -11 9 -11 -8 0 70 -119 86 -131 5
-3 8 -10 7 -14 -1 -4 6 -17 16 -29 11 -12 20 -29 22 -37 2 -8 10 -18 18 -22 8
-4 14 -15 14 -22 0 -8 5 -15 12 -15 6 0 9 -3 5 -6 -6 -6 -4 -10 38 -57 14 -15
25 -34 25 -41 0 -8 7 -16 15 -20 8 -3 15 -12 15 -21 0 -8 5 -15 10 -15 6 0 10
-7 10 -16 0 -8 4 -12 10 -9 5 3 10 0 10 -8 0 -8 7 -20 15 -27 9 -7 13 -15 11
-17 -4 -4 13 -28 42 -58 6 -8 12 -18 12 -24 0 -6 5 -11 10 -11 6 0 10 -7 10
-15 0 -8 7 -15 16 -15 8 0 12 -4 9 -10 -3 -5 3 -17 15 -27 11 -10 20 -23 20
-30 0 -7 4 -13 8 -13 9 0 47 -62 44 -72 -1 -5 3 -7 9 -5 6 1 16 -7 22 -18 7
-10 21 -27 32 -37 11 -9 17 -17 13 -18 -4 0 11 -18 33 -40 22 -22 38 -40 35
-40 -3 0 21 -25 52 -56 31 -31 56 -60 55 -65 -2 -5 2 -9 8 -9 7 0 25 -13 41
-30 15 -16 33 -30 38 -30 6 0 10 -7 10 -16 0 -8 3 -13 8 -11 4 3 13 -1 20 -9
7 -8 11 -14 8 -14 -2 0 34 -38 80 -84 46 -47 84 -90 84 -95 0 -6 4 -10 8 -8
11 3 92 -79 92 -93 0 -5 3 -10 8 -10 4 0 28 -20 55 -44 26 -25 47 -41 47 -38
0 4 4 3 8 -3 13 -18 69 -45 77 -37 5 4 5 1 1 -5 -4 -8 -1 -13 8 -13 9 0 16 -5
16 -11 0 -5 4 -7 10 -4 6 3 10 1 10 -4 0 -6 3 -10 8 -9 14 4 52 -13 52 -23 0
-6 9 -7 20 -4 11 4 20 2 20 -4 0 -6 5 -11 11 -11 7 0 18 -8 26 -17 8 -10 12
-12 8 -5 -8 16 1 15 30 -4 13 -9 29 -13 35 -9 5 3 10 1 10 -4 0 -6 9 -11 20
-11 11 0 20 -4 20 -8 0 -4 12 -9 27 -10 15 -1 30 -8 35 -15 4 -6 8 -9 8 -5 0
4 15 2 33 -3 17 -6 40 -12 51 -14 10 -2 24 -9 30 -14 9 -7 16 -7 24 1 9 9 12
9 12 0 0 -7 9 -12 19 -12 11 0 22 -6 24 -12 4 -9 6 -9 6 -1 1 11 22 7 89 -18
15 -6 21 -6 17 1 -4 7 2 7 17 1 47 -19 64 -24 88 -25 14 -1 31 -6 38 -10 7 -4
12 -2 12 6 0 10 2 11 8 0 5 -7 16 -10 25 -6 9 3 17 2 17 -2 0 -5 16 -10 36
-11 20 -1 41 -6 48 -12 7 -6 17 -6 26 -1 8 5 22 4 33 -1 10 -6 25 -8 32 -5 8
3 17 1 20 -5 4 -5 10 -7 15 -4 5 3 18 1 28 -4 13 -7 22 -7 30 1 8 8 12 8 12 2
0 -6 14 -11 31 -12 17 0 38 -7 47 -14 12 -9 14 -10 8 -1 -9 17 6 17 23 1 11
-11 12 -10 6 1 -6 10 -4 12 6 5 8 -5 31 -10 51 -11 21 -1 48 -7 59 -14 15 -8
19 -8 15 0 -4 6 -3 11 3 11 5 0 11 -6 14 -12 3 -10 7 -10 19 0 12 10 17 10 26
-1 6 -7 25 -12 42 -11 16 1 32 -1 34 -5 3 -4 30 -7 60 -6 31 0 56 -3 56 -7 0
-4 8 -7 18 -7 51 0 117 -12 124 -23 5 -10 8 -10 8 -1 0 7 9 10 23 7 12 -3 33
-7 46 -10 14 -3 28 -7 33 -10 4 -3 8 0 8 7 0 8 4 8 13 2 6 -6 19 -11 27 -11
24 -1 85 -10 85 -12 0 -1 14 -3 30 -5 17 -1 30 -3 30 -4 0 -3 117 -14 148 -14
15 0 27 -3 27 -7 0 -4 14 -6 30 -4 17 2 30 -1 30 -7 0 -8 5 -7 15 1 8 7 15 8
15 3 0 -5 16 -8 35 -7 22 2 35 -1 35 -9 0 -7 4 -6 10 3 7 11 10 11 10 2 0 -9
5 -10 19 -3 10 6 21 8 23 5 8 -8 47 -13 115 -16 35 -2 63 -7 63 -13 0 -5 5 -4
12 3 8 8 19 8 44 -3 30 -12 32 -12 27 3 -6 15 -5 15 10 3 9 -7 17 -10 17 -7 0
4 10 2 21 -5 15 -8 19 -8 15 0 -4 6 -2 11 3 11 6 0 11 -4 11 -8 0 -4 21 -7 48
-6 26 1 51 -1 57 -4 14 -8 45 -8 71 0 12 4 25 4 29 0 3 -4 21 -7 38 -8 18 -1
61 -5 97 -8 111 -11 174 -16 205 -18 17 -1 33 -6 37 -12 5 -7 8 -6 8 3 0 9 4
10 13 4 6 -5 30 -11 52 -12 22 -2 45 -7 52 -12 7 -7 14 -6 18 1 4 7 12 7 26 0
10 -6 19 -8 19 -4 0 3 7 1 15 -6 10 -8 15 -9 15 -1 0 7 8 8 24 1 13 -5 27 -6
30 -3 3 3 12 0 21 -7 12 -10 15 -10 15 1 0 9 3 10 8 4 4 -6 27 -12 52 -14 61
-4 64 -5 72 -16 5 -6 8 -5 8 3 0 10 5 10 20 2 15 -8 20 -8 20 2 0 8 3 9 8 3 4
-6 43 -12 87 -13 47 -2 83 -8 87 -15 6 -9 8 -9 8 0 0 12 24 12 36 0 4 -4 13
-2 20 4 8 6 14 6 18 0 4 -6 18 -6 35 -1 16 4 32 5 36 2 10 -11 59 -8 67 3 5 6
8 6 8 -1 0 -7 17 -12 40 -12 22 0 44 -4 50 -7 5 -3 10 -1 10 5 0 6 5 8 11 4 6
-3 54 -8 106 -9 52 -2 97 -6 100 -9 3 -3 12 -1 20 5 9 9 13 8 13 0 0 -9 5 -9
20 -1 11 6 20 7 20 3 0 -5 26 -8 58 -8 31 0 61 -1 66 -4 5 -2 42 -4 82 -4 48
0 74 -4 74 -11 0 -8 3 -8 8 0 9 13 75 13 84 -1 5 -6 8 -4 8 5 0 13 1 13 10 0
5 -8 10 -10 10 -5 0 6 9 11 20 11 11 0 20 -3 20 -6 0 -3 9 -6 20 -6 11 0 20 3
20 7 0 9 21 6 38 -4 6 -5 12 -4 12 2 0 10 31 8 49 -4 5 -3 12 -2 15 3 3 4 28
8 55 8 28 -1 51 3 51 7 0 4 9 3 20 -3 14 -7 20 -7 20 0 0 5 7 10 16 10 9 0 12
-5 8 -12 -6 -10 -4 -10 7 -2 14 11 69 27 99 29 8 0 21 4 28 8 6 5 16 6 21 2 5
-3 13 0 16 6 4 5 13 8 21 5 7 -3 16 0 20 5 3 6 15 9 25 6 11 -3 19 -2 19 3 0
4 17 11 37 15 21 4 41 12 45 18 6 9 8 9 8 -1 0 -9 7 -9 30 3 17 9 30 13 30 9
0 -4 6 -1 13 5 8 6 22 12 33 14 10 2 37 9 59 15 22 6 43 10 46 9 3 -1 13 4 22
12 10 7 17 10 17 6 0 -4 7 -2 15 5 8 6 19 9 25 5 5 -3 10 -1 10 5 0 6 5 8 10
5 6 -3 10 -2 10 4 0 5 9 8 20 6 11 -2 20 1 20 7 0 5 7 7 16 4 10 -4 13 -2 8 6
-5 7 0 9 14 6 12 -4 22 -2 22 4 0 6 9 8 20 5 11 -3 18 -1 14 4 -3 5 0 9 5 9
17 0 17 0 82 25 34 14 66 22 70 19 5 -3 9 -1 9 4 0 11 35 24 67 25 12 1 21 6
20 11 -1 6 6 10 16 8 9 -2 17 2 17 7 0 6 6 8 14 5 8 -3 17 -1 21 5 3 6 15 11
26 11 10 0 19 5 19 11 0 6 7 9 15 5 8 -3 15 0 15 6 0 6 3 8 7 5 3 -4 17 0 30
8 13 9 23 13 23 11 0 -3 12 1 27 9 15 8 30 12 35 9 4 -3 8 -1 8 3 0 5 20 15
46 22 25 7 50 19 57 25 11 10 28 15 65 18 6 1 12 6 12 11 0 5 7 7 15 3 8 -3
15 0 15 6 0 6 3 8 7 5 3 -4 12 -2 19 4 8 6 21 9 29 5 9 -3 13 -2 10 4 -3 6 1
10 9 10 9 0 16 5 16 11 0 5 4 8 10 4 5 -3 26 1 47 10 20 9 43 13 50 10 8 -2
16 1 19 8 4 11 18 16 62 19 6 1 12 6 12 11 0 5 9 7 20 4 11 -3 20 -2 20 3 0 7
167 54 195 55 6 0 15 3 20 6 6 4 20 5 32 4 12 -1 20 2 17 7 -3 5 7 8 23 7 15
0 39 2 53 6 51 14 97 22 113 19 9 -1 17 1 17 4 0 4 15 8 33 8 58 3 117 11 124
17 3 4 14 2 24 -3 10 -6 20 -6 23 -2 5 9 32 12 141 15 33 1 63 6 66 11 4 4 17
3 29 -4 15 -8 20 -8 16 -1 -5 7 7 11 36 12 92 2 113 5 127 13 10 7 12 6 6 -4
-6 -9 -4 -11 5 -5 8 5 34 10 59 12 25 1 58 3 73 4 15 1 25 6 22 10 -3 5 6 5
20 -1 14 -5 26 -6 26 -1 0 5 12 9 28 9 65 0 102 6 102 16 0 6 4 5 9 -3 5 -8
11 -9 15 -3 3 6 17 9 31 7 14 -1 25 3 25 9 0 6 5 4 10 -4 6 -9 10 -10 10 -3 0
6 8 12 18 11 38 0 105 12 117 22 6 5 14 7 17 5 10 -10 49 -14 43 -5 -3 5 3 9
12 9 10 0 32 2 48 6 17 3 36 6 43 7 6 1 12 5 12 9 0 4 9 6 20 4 11 -2 20 -1
20 3 0 4 8 9 18 10 31 3 47 7 60 15 6 5 17 5 22 2 6 -3 10 -2 10 2 0 5 8 9 18
10 39 3 62 8 62 13 0 3 10 6 23 7 33 3 51 8 65 17 7 4 27 10 45 12 37 5 71 12
75 14 1 2 7 4 12 5 6 1 11 3 13 4 2 3 55 12 75 13 6 1 12 4 12 8 0 4 10 6 23
5 12 -1 31 5 41 14 11 9 16 10 12 4 -4 -7 -2 -13 3 -13 6 0 11 5 11 11 0 5 4
7 10 4 5 -3 18 -1 29 5 14 7 22 7 27 -1 5 -8 8 -8 14 0 4 7 20 13 36 15 16 2
29 5 29 6 0 3 38 10 65 12 14 1 30 5 36 10 6 4 28 9 50 10 21 2 41 5 44 8 3 3
20 10 38 17 24 8 32 8 32 0 0 -8 3 -8 9 1 4 7 18 14 29 15 12 1 22 5 22 9 0 4
9 5 20 3 11 -2 20 0 20 5 0 4 8 7 18 5 9 -1 22 2 29 7 7 5 17 7 23 3 5 -3 10
-2 10 3 0 8 6 10 50 14 11 1 20 7 20 12 0 5 3 6 7 3 3 -4 12 -2 20 4 7 6 13 9
13 6 0 -3 15 0 34 8 18 8 36 11 40 8 3 -4 6 -1 6 5 0 7 8 12 18 12 9 0 30 7
46 15 15 8 32 12 37 9 5 -3 9 0 9 6 0 6 4 9 9 6 5 -4 12 0 14 6 4 9 6 9 6 -2
1 -10 6 -8 16 7 9 13 23 20 35 18 11 -2 20 0 20 5 0 5 10 12 23 16 12 3 34 15
49 25 30 22 42 24 33 7 -4 -7 1 -4 10 7 9 11 21 19 26 18 5 -2 9 2 9 7 0 6 11
15 25 20 14 5 25 14 25 20 0 6 4 9 9 6 5 -3 21 6 35 19 15 14 32 25 37 25 6 0
7 5 4 10 -3 6 3 10 14 10 12 0 20 3 19 8 -3 9 60 72 72 72 5 0 12 5 16 12 5 7
3 8 -7 3 -8 -5 3 8 24 28 21 20 35 37 30 37 -4 0 0 5 10 11 9 5 17 14 17 19 0
5 16 25 35 46 19 20 35 42 35 48 0 6 14 24 30 40 17 16 30 35 30 43 0 7 7 16
15 19 8 4 15 12 15 20 0 8 5 14 11 14 5 0 7 5 4 10 -3 6 1 13 9 16 9 3 16 15
16 25 0 10 5 19 10 19 6 0 15 11 22 25 6 13 15 22 20 19 5 -3 8 -2 7 3 -4 14
24 63 32 57 5 -3 6 2 3 10 -3 9 -1 16 5 16 6 0 11 7 11 15 0 8 5 15 11 15 5 0
7 5 4 10 -3 6 -1 10 5 10 6 0 15 10 20 22 12 29 30 56 52 81 10 11 15 23 13
27 -3 5 2 11 11 14 9 4 14 13 10 22 -3 8 -2 12 4 9 6 -3 10 -1 10 5 0 6 4 8
10 5 6 -3 7 1 4 9 -3 9 -1 16 5 16 6 0 10 4 8 9 -1 5 7 17 18 26 11 9 13 13 5
9 -8 -5 -2 7 13 26 16 19 33 44 38 57 5 13 13 23 19 23 6 0 8 5 5 10 -3 5 -3
10 2 10 4 0 14 14 21 30 8 17 18 27 24 24 7 -4 8 -2 4 4 -4 6 2 20 14 32 11
11 19 23 18 26 0 4 11 22 26 41 16 19 26 37 23 40 -3 3 5 15 19 28 13 12 24
29 24 36 0 8 9 21 19 29 11 7 18 17 15 22 -3 4 -1 8 4 8 4 0 19 19 32 42 13
24 29 48 34 55 30 34 34 41 29 47 -4 3 -1 6 5 6 7 0 12 5 12 10 0 6 4 16 10
23 48 59 59 75 53 81 -3 3 -1 6 5 6 7 0 12 7 12 15 0 8 5 15 10 15 6 0 10 5
10 11 0 6 6 17 13 24 30 34 35 43 30 49 -4 3 -1 6 5 6 7 0 12 5 12 10 0 6 9
21 20 33 11 12 18 27 16 34 -3 7 -1 13 5 13 6 0 7 5 4 10 -4 6 -1 9 7 8 7 -2
12 3 11 10 -2 6 0 12 5 12 4 0 16 20 27 45 11 25 23 45 27 45 5 0 8 9 8 21 0
11 5 17 10 14 6 -3 10 1 10 9 0 9 9 31 19 50 11 19 21 43 23 52 2 10 9 26 17
36 8 9 16 25 17 35 1 10 5 29 9 43 3 14 7 30 9 36 1 7 8 20 16 30 8 10 10 15
3 11 -12 -7 -13 27 -2 48 3 6 5 61 5 122 -1 62 2 113 6 113 4 0 5 7 1 16 -3 9
-6 46 -7 83 -1 36 -4 71 -9 78 -4 6 -3 15 3 18 8 5 7 11 -1 21 -9 11 -9 14 1
14 10 0 10 3 0 15 -10 12 -10 15 1 15 9 0 10 3 4 8 -6 4 -11 21 -11 37 -1 17
-3 55 -4 86 -2 30 0 61 4 67 4 7 3 12 -3 12 -5 0 -8 12 -6 27 1 15 -1 38 -6
50 -5 13 -4 25 1 28 7 4 7 13 0 24 -6 12 -5 22 3 30 9 9 9 14 -2 20 -10 7 -11
13 -2 30 8 15 9 21 1 21 -6 0 -8 5 -3 13 11 18 12 37 2 37 -6 0 -6 8 1 19 7
14 7 22 0 26 -6 4 -7 12 -3 18 4 6 8 50 10 97 5 138 8 174 16 188 5 7 3 12 -4
12 -8 0 -8 4 1 15 10 12 10 15 -1 15 -9 0 -10 3 -4 8 6 4 11 30 13 57 3 49 8
91 15 130 3 11 -1 26 -7 34 -8 11 -8 13 2 7 12 -7 13 -3 15 57 1 12 6 25 11
29 7 5 6 8 -3 8 -9 0 -10 4 -4 13 6 6 9 20 8 29 -2 10 0 20 5 23 4 3 6 14 3
25 -3 11 0 27 7 35 9 11 9 15 1 15 -9 0 -9 5 -1 21 7 11 9 27 6 35 -3 8 -2 14
3 14 4 0 7 10 6 22 -1 13 3 29 9 37 9 12 8 13 -4 6 -12 -7 -13 -6 -3 6 10 13
22 75 26 142 1 15 5 27 9 27 4 0 5 9 3 20 -2 11 0 22 4 24 4 3 9 24 10 48 2
24 3 49 4 56 0 6 4 12 9 12 4 0 8 10 8 23 0 41 3 57 12 57 5 0 7 4 4 8 -3 5 2
35 10 68 8 32 16 72 19 88 2 16 8 32 12 35 5 3 8 15 7 26 0 11 4 25 9 32 5 7
7 18 4 25 -2 7 3 22 12 32 9 11 11 16 3 12 -11 -6 -11 -4 -3 13 6 12 16 30 22
42 8 17 8 20 -3 14 -10 -6 -10 -5 -1 5 6 7 9 19 6 28 -5 11 -3 13 7 7 9 -5 11
-4 6 4 -4 6 -2 18 4 26 7 8 9 15 5 15 -4 0 -3 6 2 13 6 6 9 20 8 29 -2 10 1
20 6 24 5 3 9 14 9 25 0 10 4 19 10 19 5 0 9 3 9 8 -1 4 -1 9 1 12 1 3 4 16 6
30 2 13 8 27 12 30 4 3 8 10 9 15 4 25 8 40 13 45 13 13 39 81 28 74 -6 -4 -2
7 11 24 12 18 19 32 15 32 -3 0 -1 6 5 13 6 8 8 17 4 20 -3 4 -1 7 5 7 7 0 12
9 12 19 0 11 5 23 10 26 6 4 8 11 5 16 -4 5 -1 9 5 9 6 0 9 4 5 9 -3 5 1 15 8
23 7 7 14 15 15 18 5 23 18 49 35 68 11 12 17 22 13 22 -4 0 2 12 13 26 12 15
21 34 21 42 0 8 3 13 6 9 6 -6 48 61 60 96 4 9 11 17 16 17 5 0 7 4 4 9 -3 5
1 11 9 15 8 3 15 12 15 21 0 8 5 15 11 15 5 0 8 4 5 9 -3 5 1 14 9 21 8 7 15
19 15 27 0 7 7 16 15 19 8 4 15 12 15 19 0 7 7 16 16 19 8 3 12 10 9 16 -3 6
0 13 8 16 8 3 17 15 20 26 4 13 10 17 18 12 8 -4 10 -3 5 4 -4 7 -2 12 5 12 7
0 10 3 7 6 -3 3 7 19 23 37 16 17 27 33 24 35 -2 3 11 20 31 38 19 19 31 34
28 34 -4 0 4 11 17 23 50 49 94 101 91 109 -2 8 13 12 31 9 5 -1 6 3 2 9 -3 5
1 13 9 16 9 3 13 10 10 15 -3 5 -1 9 4 9 5 0 21 12 36 26 16 17 26 22 26 13 1
-10 3 -9 10 3 6 10 20 15 35 14 14 -2 30 2 35 9 6 7 20 11 30 8 11 -3 27 0 35
7 8 7 15 8 15 3 0 -5 9 -9 19 -9 11 0 17 5 14 10 -4 5 1 7 10 3 10 -3 17 -2
17 3 0 6 9 10 20 10 11 0 20 4 20 10 0 5 6 7 14 4 7 -3 20 1 27 8 8 7 21 14
29 16 8 2 18 9 22 15 4 7 8 8 8 4 0 -4 20 6 45 23 25 17 45 28 45 24 0 -4 7 1
15 12 8 10 15 15 15 10 0 -5 8 1 19 12 10 12 23 22 30 22 6 0 11 5 11 10 0 6
7 10 15 10 8 0 15 5 15 10 0 6 7 10 16 10 9 0 12 5 8 12 -5 8 -2 9 9 5 9 -3
19 -1 23 5 5 7 2 8 -7 4 -8 -4 -5 -1 6 8 11 8 25 20 31 25 7 5 14 7 17 5 3 -3
8 4 12 15 3 12 10 19 14 17 4 -3 22 11 40 30 18 18 37 31 42 28 5 -3 9 0 9 6
0 15 25 40 40 40 6 0 8 5 5 10 -3 6 1 10 9 10 8 0 18 9 21 20 3 11 13 20 21
20 8 0 12 4 9 10 -3 6 1 7 9 4 9 -3 13 -10 10 -15 -3 -5 3 -9 12 -9 10 0 14
-3 11 -6 -4 -4 3 -15 15 -25 11 -11 17 -19 13 -19 -5 0 1 -9 13 -20 12 -12 22
-25 22 -30 0 -6 8 -10 18 -10 13 0 14 -2 3 -9 -11 -7 -9 -10 8 -16 11 -3 21
-12 21 -19 0 -7 14 -27 30 -45 17 -17 27 -31 23 -31 -5 0 0 -5 10 -11 9 -5 17
-17 17 -25 0 -8 5 -12 10 -9 9 5 12 -1 9 -21 0 -3 11 -16 26 -30 14 -13 24
-24 22 -24 -2 0 23 -29 57 -64 33 -34 64 -61 69 -59 4 2 7 -3 7 -12 0 -9 4
-13 10 -10 5 3 17 -3 26 -14 9 -10 23 -17 30 -14 8 3 14 1 14 -4 0 -10 7 -11
55 -14 14 -1 28 -5 31 -10 3 -5 13 -5 22 0 9 4 29 8 44 7 14 -1 25 1 22 5 -2
4 3 10 12 13 10 4 13 2 9 -7 -4 -6 -1 -5 7 4 7 9 21 15 30 13 11 -1 15 3 11
12 -3 9 0 14 8 12 8 -2 13 3 11 10 -1 8 2 11 7 7 6 -3 15 4 21 15 6 11 14 18
18 16 5 -3 9 5 9 17 1 12 9 27 17 33 9 6 13 14 9 17 -3 4 0 13 7 22 7 8 9 15
5 15 -4 0 0 11 8 24 12 17 13 26 4 35 -8 8 -8 11 0 11 6 0 10 15 9 35 -1 19 1
35 5 35 3 0 5 19 4 43 -1 23 2 50 7 60 6 12 5 17 -4 17 -9 0 -9 3 2 10 11 7
11 10 2 10 -9 0 -10 5 -2 19 5 11 7 22 3 24 -10 6 -9 59 1 75 4 7 4 12 -1 12
-4 0 -9 37 -10 83 -3 156 -8 237 -16 237 -4 0 -3 9 3 20 6 12 7 20 1 20 -10 0
-9 19 2 37 4 6 4 14 -1 17 -4 2 -9 40 -10 83 -1 43 1 73 6 66 5 -8 13 -9 22
-3 9 5 19 5 27 -2 7 -6 24 -8 38 -6 14 3 28 2 31 -3 2 -4 11 -6 19 -2 8 3 15
0 15 -7 0 -10 3 -10 15 0 8 7 15 8 15 3 0 -5 8 -9 18 -10 29 -2 107 -12 107
-13 0 -3 42 -10 77 -12 21 -2 38 -7 38 -12 0 -5 3 -6 6 -3 4 3 15 2 25 -4 14
-7 19 -6 19 2 0 8 4 9 13 0 8 -6 17 -8 20 -4 4 3 7 0 7 -8 0 -11 2 -11 10 1 5
8 10 10 10 4 0 -7 13 -10 30 -9 17 1 30 0 30 -4 0 -3 18 -5 40 -5 22 1 40 -1
40 -5 0 -3 30 -7 67 -9 37 -1 72 -7 79 -13 8 -7 14 -7 19 1 3 6 11 7 17 4 6
-4 35 -8 66 -11 30 -2 62 -9 71 -16 12 -10 13 -9 6 3 -7 12 -6 13 6 4 8 -5 23
-10 34 -10 11 1 26 -6 33 -14 8 -8 11 -9 7 -2 -3 6 -2 12 4 12 5 0 12 -6 14
-12 4 -10 6 -10 6 0 1 8 6 10 14 5 13 -8 18 -10 43 -12 8 0 12 -6 8 -12 -4 -8
0 -8 15 0 15 8 21 9 21 1 0 -6 4 -9 9 -5 5 3 12 1 15 -4 4 -5 17 -8 31 -6 14
1 25 -2 25 -7 0 -6 7 -8 15 -5 8 4 17 2 20 -3 3 -5 12 -7 20 -3 8 3 15 0 15
-7 0 -6 5 -8 10 -5 6 3 15 3 22 -1 11 -7 33 -11 86 -17 12 -1 22 -6 22 -10 0
-5 5 -5 10 -2 6 3 10 1 10 -6 0 -8 4 -8 15 1 10 9 15 9 15 1 0 -6 3 -10 8 -10
4 1 10 0 15 -1 4 -1 16 -4 27 -5 11 -1 21 -3 23 -5 1 -1 18 -4 37 -7 19 -2 41
-9 48 -15 7 -6 15 -8 19 -5 3 4 12 2 19 -3 6 -6 16 -10 20 -9 21 4 73 -14 67
-23 -4 -7 1 -7 13 0 11 6 27 7 41 1 15 -6 23 -5 23 2 0 8 4 8 13 0 10 -8 17
-7 25 1 9 9 12 9 12 -2 0 -9 3 -11 8 -5 4 6 17 15 29 22 17 10 23 10 26 0 4
-9 6 -9 6 1 1 7 6 10 13 6 7 -4 8 -3 4 4 -4 6 4 16 16 23 33 18 45 32 40 48
-3 8 0 11 7 7 6 -4 11 -2 11 4 0 6 5 8 10 5 14 -9 13 8 -2 23 -9 9 -9 12 3 12
19 0 20 9 23 125 1 50 -2 93 -7 96 -5 4 -9 18 -9 33 0 14 -4 26 -8 26 -4 0
-10 9 -13 20 -3 11 -1 18 4 14 5 -3 6 2 3 10 -3 9 -9 16 -13 16 -4 0 -8 7 -8
15 0 23 -23 96 -44 138 -11 23 -14 35 -6 32 7 -4 5 -1 -3 7 -9 7 -15 22 -15
33 0 11 -6 26 -13 33 -7 8 -10 18 -7 23 4 5 1 9 -5 9 -7 0 -10 7 -6 15 3 8 1
15 -5 15 -6 0 -7 5 -4 10 3 6 3 10 -2 10 -11 0 -35 79 -28 91 4 5 -2 9 -11 9
-10 0 -14 3 -11 7 4 3 0 17 -9 31 -9 13 -11 21 -4 17 7 -4 5 4 -4 17 -9 14
-13 28 -9 31 3 4 1 7 -6 7 -8 0 -11 7 -7 15 3 8 1 15 -3 15 -5 0 -8 11 -7 24
2 17 -1 23 -11 19 -9 -4 -11 0 -7 11 3 9 2 16 -3 16 -5 0 -10 14 -11 32 -2 18
-8 36 -15 40 -7 4 -8 8 -2 8 5 0 4 5 -2 11 -6 6 -9 18 -6 25 3 8 1 14 -4 14
-5 0 -10 6 -10 13 0 6 -3 26 -7 43 -5 25 3 45 36 100 23 38 45 70 49 72 4 2 5
10 2 18 -3 7 2 17 11 20 9 3 14 10 11 14 -3 5 3 23 14 41 11 18 18 36 15 41
-3 4 -1 8 4 8 5 0 9 6 10 13 1 6 3 23 4 37 2 14 6 27 10 30 15 12 25 202 14
257 -3 16 -1 20 10 16 8 -3 14 -9 14 -14 0 -5 7 -9 15 -9 8 0 15 -4 15 -10 0
-5 7 -10 15 -10 8 0 15 -4 15 -10 0 -5 7 -10 15 -10 7 0 19 -8 24 -17 6 -10
11 -14 11 -9 0 5 9 -1 20 -14 11 -13 20 -20 20 -16 0 4 13 -1 29 -10 17 -10
27 -22 24 -28 -4 -5 0 -7 9 -3 9 3 23 -2 33 -13 10 -11 21 -17 26 -15 4 3 15
-5 23 -17 9 -12 16 -19 16 -14 0 5 7 3 15 -4 8 -7 15 -10 15 -6 0 3 9 -3 20
-14 11 -11 26 -20 34 -20 8 0 17 -7 20 -16 4 -9 9 -14 13 -11 3 4 14 -3 24
-15 11 -11 19 -18 19 -14 0 9 103 -64 108 -76 2 -5 10 -8 18 -8 8 0 17 -7 20
-15 4 -8 10 -13 14 -10 5 3 16 -5 25 -17 8 -13 18 -22 20 -20 12 6 26 1 21 -7
-3 -5 8 -14 24 -21 16 -7 27 -17 23 -23 -3 -5 -1 -7 4 -4 6 4 16 0 23 -8 7 -8
16 -12 21 -9 5 3 9 -2 9 -11 0 -9 5 -13 10 -10 6 3 10 2 10 -4 0 -5 9 -13 21
-16 21 -7 32 -15 83 -61 14 -13 26 -20 26 -16 1 4 9 -3 19 -15 10 -12 21 -19
25 -16 3 4 6 1 6 -5 0 -7 6 -12 14 -12 8 0 17 -7 20 -16 3 -8 10 -13 15 -9 6
3 15 -4 21 -15 6 -11 19 -20 29 -20 11 0 21 -7 24 -14 3 -8 21 -23 39 -32 18
-9 35 -20 38 -23 3 -3 14 -13 24 -21 18 -13 19 -13 12 0 -4 9 -2 8 7 -2 8 -10
17 -15 20 -11 4 3 7 1 7 -5 0 -7 7 -12 15 -12 8 0 15 -5 15 -11 0 -5 5 -7 10
-4 6 3 13 0 16 -9 3 -8 11 -13 19 -10 7 3 15 -2 18 -10 4 -9 16 -16 27 -16 12
0 19 -4 16 -8 -2 -4 5 -9 17 -9 12 -1 23 -7 25 -13 2 -5 12 -10 23 -10 10 0
19 -4 19 -10 0 -5 12 -10 26 -10 17 0 23 -4 18 -12 -5 -8 -2 -9 9 -5 10 3 17
2 17 -4 0 -6 5 -7 10 -4 6 3 10 1 10 -5 0 -6 5 -8 10 -5 6 3 10 2 10 -4 0 -5
11 -8 25 -6 14 1 25 -2 25 -7 0 -6 7 -8 15 -4 8 3 15 1 15 -5 0 -6 4 -8 9 -5
5 4 12 0 14 -6 4 -10 6 -10 6 0 1 7 6 10 13 6 13 -8 52 -12 142 -15 40 -1 61
3 67 12 7 12 9 11 9 -1 0 -13 1 -13 10 0 5 8 10 12 10 7 0 -4 13 -1 29 7 16 9
31 12 35 9 3 -4 6 -1 6 6 0 7 5 9 10 6 6 -3 10 1 10 10 0 9 4 14 9 10 5 -3 16
1 24 9 8 8 17 12 21 9 3 -4 6 -1 6 5 0 7 7 12 16 12 8 0 12 5 9 10 -6 9 8 14
28 11 5 -1 6 3 2 9 -3 5 1 13 9 16 9 3 14 10 11 15 -3 4 4 13 15 19 11 6 18
15 15 20 -3 4 1 15 9 22 7 8 17 30 22 49 11 47 11 48 14 57 1 4 1 18 0 31 -1
17 2 21 12 15 10 -6 9 -3 -1 10 -8 10 -16 34 -17 54 -1 20 -3 37 -4 37 -2 0
-11 36 -12 53 -1 6 -4 12 -8 12 -4 0 -7 7 -8 15 -1 8 -3 22 -4 30 -1 8 -5 15
-10 15 -5 0 -7 4 -3 9 3 5 -2 17 -11 25 -11 12 -12 16 -2 16 9 0 9 3 2 8 -6 4
-17 25 -25 47 -7 22 -19 45 -26 51 -7 6 -10 13 -7 17 3 3 -2 19 -11 36 -9 18
-13 37 -9 43 4 7 3 8 -4 4 -10 -6 -13 2 -12 29 1 3 -6 13 -15 21 -8 9 -13 19
-10 24 3 5 0 10 -6 12 -6 2 -12 15 -12 30 -1 14 -5 24 -9 21 -5 -2 -8 3 -8 11
0 9 -4 16 -10 16 -5 0 -10 11 -10 25 0 14 -4 25 -10 25 -5 0 -10 6 -10 13 0 8
-11 35 -25 62 -13 27 -21 53 -18 58 3 6 1 7 -5 3 -11 -6 -16 6 -13 27 0 4 -4
7 -10 7 -5 0 -8 4 -5 9 3 5 -4 21 -15 35 -12 15 -18 33 -15 42 3 8 2 12 -4 9
-6 -3 -10 1 -10 9 0 9 -5 16 -12 16 -6 0 -9 3 -5 6 3 3 -10 35 -29 71 -19 36
-32 68 -29 73 3 4 -2 10 -10 14 -8 3 -15 12 -15 21 0 8 -5 15 -11 15 -5 0 -8
4 -4 9 3 5 0 16 -7 23 -26 28 -36 55 -27 69 6 9 9 10 9 2 0 -7 7 -10 15 -7 8
4 15 1 15 -6 0 -6 4 -9 10 -5 5 3 26 -1 46 -10 20 -8 40 -13 44 -10 4 3 13 -1
19 -9 7 -8 21 -12 33 -8 13 3 19 1 15 -5 -3 -5 4 -9 16 -8 12 1 25 -2 28 -6 3
-5 17 -10 32 -11 15 -1 27 -6 27 -11 0 -4 5 -5 10 -2 6 3 10 1 10 -4 0 -6 3
-10 8 -10 4 1 10 0 15 -1 4 -1 13 -3 20 -4 6 -1 11 -6 10 -12 -1 -5 8 -11 19
-11 12 -1 24 -6 27 -10 6 -8 27 -15 49 -16 6 0 12 -7 12 -16 0 -14 2 -14 10
-1 9 13 10 13 10 0 0 -11 2 -12 8 -3 5 8 13 9 22 3 8 -5 21 -5 32 1 13 7 18 6
18 -3 0 -8 3 -9 8 -3 4 6 16 10 27 11 33 2 49 8 62 24 7 8 13 12 13 8 0 -4 9
0 19 9 11 9 18 20 15 25 -3 4 4 8 15 8 13 0 18 5 15 13 -2 7 3 22 13 33 21 23
27 40 26 72 -1 12 3 22 7 22 4 0 4 19 0 42 -4 22 -7 52 -5 64 1 13 -2 21 -6
18 -8 -4 -14 25 -10 49 0 4 -4 7 -9 7 -6 0 -10 9 -10 20 0 11 -5 20 -11 20 -5
0 -8 4 -4 9 3 5 1 12 -5 16 -6 4 -8 11 -5 16 4 5 1 9 -4 9 -6 0 -11 7 -11 15
0 9 -7 27 -16 40 -9 14 -13 25 -9 25 4 0 1 7 -6 16 -7 9 -14 23 -15 31 -2 8
-11 24 -21 36 -13 14 -14 18 -3 13 12 -6 11 -4 -1 6 -9 7 -15 21 -13 31 1 9
-1 15 -4 13 -4 -2 -12 2 -19 9 -10 11 -10 15 0 18 9 4 9 6 0 6 -7 1 -13 7 -13
14 0 7 -11 28 -25 47 -13 18 -22 37 -19 41 3 5 0 9 -5 9 -6 0 -11 6 -11 14 0
8 -5 16 -10 18 -6 2 -12 13 -13 25 0 12 -4 20 -8 17 -4 -2 -13 9 -21 26 -7 16
-16 30 -20 30 -5 0 -8 9 -8 21 0 11 -4 18 -9 15 -11 -7 -23 22 -14 36 3 6 2 8
-4 5 -5 -3 -17 10 -27 28 -11 19 -23 32 -29 28 -6 -3 -7 -1 -3 5 4 7 -2 22
-13 34 -12 12 -21 28 -21 35 0 7 -4 13 -10 13 -5 0 -10 7 -10 16 0 8 -4 12
-10 9 -5 -3 -10 0 -10 8 0 8 -7 20 -15 27 -8 7 -12 16 -9 21 3 5 -2 9 -11 9
-9 0 -13 5 -10 10 3 6 1 10 -4 10 -6 0 -11 4 -11 10 0 5 -9 21 -21 34 -12 13
-20 27 -19 31 1 4 -7 14 -17 23 -22 19 -53 63 -53 73 0 9 20 6 37 -4 6 -4 15
-3 18 3 4 7 11 7 18 2 7 -5 25 -9 40 -8 16 1 30 -1 33 -5 2 -4 18 -6 34 -4 17
2 30 0 30 -4 0 -4 18 -7 40 -6 22 1 40 -2 40 -7 0 -5 5 -6 10 -3 6 3 15 3 22
-1 6 -4 33 -8 59 -9 27 -1 56 -8 66 -16 14 -12 16 -12 8 0 -6 11 -4 13 11 7
10 -4 33 -10 49 -13 17 -3 38 -10 49 -15 14 -8 17 -7 11 3 -6 8 -4 10 6 3 16
-9 34 -15 64 -17 11 -1 22 -4 25 -7 3 -3 19 -10 37 -16 24 -9 33 -9 37 0 3 7
5 7 5 -1 1 -7 9 -13 19 -13 10 0 22 -3 26 -7 6 -6 20 -9 64 -15 6 -1 12 -5 12
-9 0 -4 9 -6 20 -4 11 2 20 0 20 -5 0 -4 9 -6 20 -3 11 3 20 1 20 -3 0 -5 15
-10 33 -12 44 -4 72 -9 72 -12 0 -8 63 -4 74 4 12 9 13 8 7 -3 -7 -10 -3 -12
14 -6 15 5 20 4 16 -4 -4 -5 6 -4 21 4 21 11 29 12 35 2 6 -9 8 -9 8 2 0 7 6
11 15 7 8 -3 15 -1 15 4 0 6 5 10 12 10 20 0 98 41 98 51 0 6 5 7 10 4 6 -3
10 -1 10 4 0 6 7 11 17 11 9 0 14 2 11 5 -3 3 12 23 34 44 21 21 37 45 36 52
-2 8 3 13 11 11 12 -3 12 0 1 12 -7 9 -9 16 -4 16 13 0 36 54 25 58 -6 2 -7
12 -1 26 4 13 4 29 -1 39 -7 12 -6 17 2 17 8 0 8 4 -1 15 -7 8 -9 15 -5 15 4
0 2 6 -4 13 -6 8 -8 17 -4 20 3 4 1 7 -6 7 -7 0 -9 5 -5 12 4 6 -1 17 -11 24
-10 8 -16 17 -12 20 4 4 -4 16 -17 28 -14 12 -26 28 -28 36 -2 8 -15 26 -30
39 -16 14 -28 29 -28 34 0 5 -13 22 -30 37 -16 15 -30 31 -30 35 0 4 -17 23
-37 44 -21 20 -43 46 -50 56 -6 11 -16 19 -23 17 -6 -1 -9 2 -5 8 3 5 -1 13
-9 16 -9 3 -13 10 -10 15 3 5 -2 9 -10 9 -9 0 -16 7 -16 16 0 8 -4 12 -10 9
-10 -6 -15 9 -10 30 1 6 -1 7 -5 3 -9 -8 -45 23 -39 34 3 4 -2 8 -11 8 -8 0
-23 13 -34 30 -10 16 -21 27 -24 23 -4 -3 -7 -1 -7 6 0 16 -26 42 -34 34 -3
-4 -6 -1 -6 6 0 16 -25 41 -41 41 -7 0 -9 3 -6 6 3 4 -8 20 -26 37 -18 16 -31
34 -30 38 2 4 -6 10 -16 14 -10 3 -24 17 -31 30 -7 14 -15 23 -18 20 -6 -6
-32 21 -32 34 0 5 -9 13 -20 16 -11 4 -18 11 -15 16 4 5 1 9 -4 9 -16 0 -80
72 -81 90 0 13 -1 13 -10 0 -8 -13 -10 -12 -10 4 0 11 -3 16 -6 13 -7 -7 -44
30 -44 45 0 4 -7 8 -15 8 -8 0 -15 3 -15 8 0 9 -57 68 -108 111 -23 19 -39 38
-36 43 3 5 0 7 -8 6 -7 -2 -12 2 -11 9 2 6 -6 15 -17 18 -11 4 -20 10 -20 15
0 5 -9 12 -20 15 -11 3 -20 11 -20 16 0 11 -25 39 -34 39 -12 0 -66 57 -66 69
0 7 -5 9 -10 6 -6 -3 -13 1 -16 9 -3 9 -10 16 -16 16 -12 0 -38 26 -38 39 0 5
-9 13 -20 16 -11 3 -20 11 -20 16 0 5 -7 9 -16 9 -8 0 -12 5 -9 10 3 6 -1 10
-10 10 -9 0 -14 3 -12 8 4 9 -40 52 -47 45 -3 -3 -8 2 -12 11 -3 9 -12 16 -20
16 -8 0 -14 4 -14 8 0 5 -9 19 -20 32 -11 13 -20 19 -20 15 0 -4 -15 7 -32 26
-18 19 -32 38 -30 42 1 5 -2 6 -7 3 -5 -4 -28 12 -51 34 -22 22 -45 40 -50 40
-6 0 -10 7 -10 16 0 8 -4 13 -8 10 -5 -3 -15 4 -22 15 -8 10 -18 19 -23 19
-12 0 -92 82 -89 92 1 4 -4 8 -12 8 -8 0 -17 4 -21 9 -3 5 9 8 27 6 18 -2 33
-4 33 -5 0 -2 58 -10 106 -14 25 -1 51 -6 57 -10 7 -4 16 -5 21 -2 5 4 12 0
14 -6 4 -10 6 -10 6 0 1 7 6 10 13 6 6 -4 28 -8 50 -10 21 -2 42 -5 47 -9 5
-3 12 -1 15 4 7 10 25 9 42 -1 5 -4 47 -8 93 -10 45 -1 85 -6 87 -10 3 -4 16
-3 29 2 17 7 25 6 25 -1 0 -8 5 -7 15 1 8 7 15 8 15 3 0 -8 44 -14 127 -15 18
-1 30 -5 27 -10 -3 -4 6 -4 20 2 14 5 26 6 26 2 0 -5 18 -7 40 -6 22 1 43 -3
46 -7 3 -5 11 -6 17 -2 7 4 41 8 77 9 36 1 92 5 125 9 33 4 75 8 92 9 18 0 33
3 33 6 0 3 14 7 32 8 17 2 38 8 45 14 7 6 13 6 13 1 0 -5 7 -10 14 -10 8 0 14
5 13 11 -1 5 12 10 30 10 17 0 30 3 28 6 -2 4 11 13 30 20 19 8 35 18 35 23 0
5 7 7 15 3 8 -3 14 -2 12 2 -1 4 18 27 43 51 25 25 38 41 30 36 -12 -7 -13 -6
-3 7 7 8 10 18 6 21 -3 4 0 7 8 7 8 0 15 8 16 18 1 15 8 49 13 62 6 14 5 37
-2 58 -5 14 -3 22 4 22 9 0 9 3 0 12 -7 7 -12 22 -12 35 0 13 -5 23 -10 23 -6
0 -9 3 -8 8 3 14 -16 47 -43 77 -16 17 -37 41 -48 54 -12 13 -21 21 -21 17 0
-3 -14 7 -31 24 -18 16 -36 30 -40 30 -5 0 -18 8 -28 18 -33 29 -50 42 -56 42
-7 0 -62 38 -89 63 -11 9 -23 17 -28 17 -4 0 -10 0 -13 0 -3 0 -14 8 -24 18
-44 39 -91 68 -91 56 0 -3 -8 4 -18 15 -9 12 -25 23 -35 25 -10 1 -22 7 -25
12 -4 6 -22 16 -39 23 -19 8 -30 18 -26 25 3 6 3 8 -2 4 -4 -4 -14 -3 -22 3
-7 6 -13 8 -13 4 0 -4 -9 3 -21 16 -11 13 -17 17 -13 10 5 -9 -5 -6 -23 7 -17
12 -36 22 -43 22 -6 0 -8 5 -5 10 4 6 3 9 -2 8 -11 -4 -107 44 -111 55 -2 4
-12 7 -22 7 -11 0 -23 7 -28 16 -5 8 -15 16 -23 18 -24 5 -69 29 -69 37 0 5
-7 6 -15 3 -8 -4 -15 -1 -15 6 0 6 -4 8 -10 5 -5 -3 -10 -2 -10 2 0 5 -16 15
-35 22 -19 7 -35 16 -35 21 0 5 -7 7 -15 4 -8 -4 -15 -1 -15 6 0 6 -4 9 -9 6
-5 -4 -11 -1 -13 4 -2 6 -13 12 -25 13 -12 0 -19 5 -17 9 3 4 -2 8 -10 8 -9 0
-16 4 -16 10 0 5 -6 7 -13 4 -8 -3 -20 2 -27 11 -7 8 -18 15 -26 15 -7 0 -33
11 -57 25 -25 13 -47 21 -51 18 -3 -4 -6 -1 -6 5 0 7 -3 11 -7 10 -14 -2 -73
28 -67 35 4 3 -3 4 -15 2 -12 -2 -24 2 -27 8 -2 7 -14 14 -27 14 -12 1 -23 7
-25 13 -2 5 -10 10 -18 10 -10 0 -12 5 -8 13 5 8 2 8 -9 -2 -11 -8 -17 -9 -17
-2 0 6 -11 13 -25 17 -14 3 -25 10 -25 15 0 5 -7 5 -17 2 -11 -4 -14 -3 -9 5
6 11 -19 18 -46 13 -5 0 -8 3 -8 9 0 5 -7 10 -15 10 -8 0 -15 5 -15 10 0 6 -6
10 -13 10 -19 0 -67 24 -67 33 0 5 -4 6 -9 2 -5 -3 -16 1 -24 9 -8 8 -17 13
-20 10 -2 -3 -20 4 -40 15 -19 11 -38 17 -41 14 -3 -4 -6 -1 -6 5 0 7 -9 12
-20 12 -11 0 -20 5 -20 10 0 6 -8 10 -18 10 -10 0 -28 7 -40 16 -12 8 -27 12
-32 9 -6 -3 -10 -2 -10 4 0 5 -10 13 -22 17 -13 3 -32 14 -42 23 -11 9 -16 11
-12 4 4 -7 -12 -2 -36 10 -24 12 -45 25 -46 30 -2 4 -8 5 -13 1 -5 -3 -19 2
-31 10 -12 9 -31 16 -41 16 -9 0 -20 6 -23 14 -3 8 -14 13 -25 11 -10 -2 -19
0 -19 6 0 5 -9 9 -19 9 -11 0 -21 4 -23 9 -1 5 -12 11 -23 13 -11 1 -23 7 -26
11 -3 4 -16 9 -27 10 -12 1 -22 4 -22 8 0 3 -18 12 -40 19 -22 7 -40 17 -40
22 0 4 -3 7 -7 6 -14 -4 -88 24 -107 41 -11 9 -16 11 -13 4 4 -6 -12 -2 -36
10 -23 12 -49 23 -57 25 -8 2 -17 7 -20 11 -3 4 -13 7 -22 8 -35 1 -39 3 -32
16 4 6 4 9 -1 5 -4 -4 -22 -1 -40 7 -19 7 -36 11 -39 8 -3 -3 -9 2 -12 11 -5
14 -9 15 -15 4 -7 -10 -9 -10 -9 0 0 6 -6 12 -12 12 -7 0 -26 7 -41 15 -15 8
-25 10 -22 5 3 -6 -1 -7 -9 -4 -9 3 -16 11 -16 16 0 6 -7 7 -15 4 -9 -3 -18 1
-21 9 -4 8 -10 12 -15 9 -6 -3 -17 0 -26 8 -12 9 -15 9 -9 1 5 -9 2 -11 -8 -7
-9 3 -16 10 -16 15 0 5 -11 9 -24 9 -14 0 -28 5 -31 10 -4 6 -10 8 -15 5 -5
-3 -11 -1 -15 5 -4 6 -11 8 -16 5 -5 -4 -9 -2 -9 3 0 5 -6 9 -12 10 -25 2 -48
8 -54 15 -4 4 -16 7 -26 7 -10 0 -18 5 -18 11 0 5 -5 7 -10 4 -6 -4 -18 -1
-26 6 -8 6 -17 9 -21 6 -3 -4 -11 -3 -17 1 -14 11 -128 47 -138 44 -5 -1 -8 2
-8 7 0 5 -8 7 -19 4 -10 -3 -22 0 -25 6 -4 6 -16 11 -27 11 -10 0 -19 3 -19 8
0 4 -10 8 -23 9 -23 2 -62 10 -62 13 0 1 -9 3 -19 5 -10 2 -22 9 -26 15 -5 8
-10 9 -14 2 -4 -7 -17 -5 -38 5 -17 9 -44 16 -60 17 -15 1 -28 4 -28 8 0 3
-21 11 -47 17 -27 6 -57 14 -68 17 -11 3 -27 7 -35 9 -8 2 -15 4 -15 5 0 1 -9
3 -20 5 -26 5 -60 13 -60 15 0 2 -35 10 -63 14 -12 1 -25 6 -29 9 -3 4 -18 7
-33 7 -14 0 -32 6 -39 13 -11 10 -12 9 -6 -3 7 -12 6 -13 -6 -3 -9 7 -25 14
-37 16 -12 2 -25 6 -28 10 -4 4 -13 2 -20 -4 -10 -8 -15 -7 -20 4 -3 9 -13 13
-25 10 -10 -3 -19 -1 -19 5 0 6 -8 9 -17 8 -10 -2 -21 2 -25 8 -6 8 -8 8 -8
-1 0 -6 -9 -9 -20 -6 -11 3 -20 9 -20 13 0 4 -13 6 -30 5 -16 -1 -30 1 -30 5
0 4 -11 6 -25 5 -14 -2 -25 0 -25 3 0 7 -35 12 -87 15 -13 1 -23 5 -23 9 0 4
-8 7 -17 6 -50 -4 -84 2 -77 15 5 8 2 8 -9 -2 -10 -8 -17 -9 -17 -3 0 6 -8 9
-19 7 -10 -2 -31 3 -45 10 -16 9 -24 10 -20 3 5 -8 1 -9 -12 -4 -17 7 -81 18
-111 19 -7 0 -13 5 -13 11 0 6 -5 4 -10 -4 -5 -8 -10 -10 -10 -4 0 10 -13 14
-54 15 -11 0 -27 4 -37 10 -12 6 -20 5 -24 -1 -5 -8 -11 -8 -19 -1 -7 6 -16 8
-19 4 -4 -3 -7 -2 -7 4 0 6 -11 9 -25 8 -14 -2 -25 0 -25 3 0 4 -12 8 -27 9
-68 3 -110 10 -130 21 -15 8 -24 9 -28 2 -5 -8 -11 -8 -19 -1 -7 6 -16 8 -19
4 -4 -3 -13 0 -22 7 -12 10 -15 10 -15 -1 0 -9 -3 -10 -8 -3 -6 10 -21 14 -64
15 -10 0 -18 4 -18 8 0 4 -13 6 -30 3 -20 -3 -30 0 -30 8 0 10 -3 10 -14 1 -9
-8 -16 -8 -20 -2 -4 5 -15 8 -26 6 -11 -2 -20 0 -20 4 0 4 -16 7 -36 6 -19 -1
-37 2 -40 6 -2 4 -13 5 -24 2 -11 -3 -20 0 -20 6 0 9 -5 9 -20 1 -11 -6 -20
-7 -20 -2 0 7 -44 12 -137 15 -13 1 -23 4 -23 7 0 3 -9 6 -20 6 -11 0 -20 -4
-20 -8 0 -5 -8 -4 -18 1 -24 13 -195 9 -213 -4 -8 -6 -26 -17 -40 -24 -35 -17
-85 -61 -82 -72 3 -8 -12 -13 -30 -10 -5 1 -6 -2 -3 -7 3 -5 -24 -38 -60 -75
-35 -36 -64 -64 -64 -62 0 3 -13 -9 -28 -25 -16 -16 -31 -27 -35 -24 -3 3 -8
-4 -12 -16 -6 -20 -8 -20 -31 -6 -13 9 -30 16 -39 16 -8 0 -15 5 -15 10 0 6
-9 10 -20 10 -11 0 -20 5 -20 10 0 6 -9 10 -20 10 -11 0 -20 3 -20 8 0 4 -15
13 -32 21 -18 8 -42 21 -52 30 -11 9 -16 10 -12 4 4 -7 2 -13 -3 -13 -6 0 -11
5 -11 12 0 6 -3 9 -6 5 -4 -3 -19 0 -34 8 -15 8 -30 11 -34 8 -3 -4 -6 -2 -6
3 0 5 -12 11 -26 12 -15 1 -34 8 -42 15 -13 10 -14 9 -7 -3 7 -13 6 -13 -7 -2
-9 7 -20 12 -24 11 -5 -1 -11 0 -14 1 -12 4 -49 11 -90 16 -24 2 -49 9 -53 13
-5 5 -21 6 -36 1 -17 -5 -33 -3 -44 5 -9 7 -29 10 -43 7 -16 -3 -30 1 -35 9
-6 9 -9 10 -9 2 0 -8 -9 -9 -31 -3 -17 5 -53 10 -80 12 -27 2 -49 5 -49 8 0 3
-23 6 -52 8 -28 2 -59 7 -68 12 -11 6 -22 5 -30 -3 -10 -9 -11 -9 -6 1 5 8 -3
12 -28 12 -19 0 -38 5 -41 10 -5 8 -11 8 -20 0 -7 -6 -16 -7 -19 -2 -3 5 -20
9 -38 8 -18 -1 -39 6 -46 14 -8 8 -11 9 -7 3 4 -8 -1 -13 -14 -13 -10 0 -22 6
-25 13 -5 9 -7 9 -12 -1 -3 -6 -11 -9 -17 -5 -7 4 -61 9 -122 10 -60 1 -110 3
-110 3 0 1 -30 2 -68 3 -37 1 -67 0 -67 -3 0 -3 -37 -5 -83 -5 -45 1 -90 -3
-99 -7 -12 -6 -18 -5 -18 4 0 8 -3 9 -8 3 -4 -5 -22 -11 -39 -11 -18 -1 -51
-4 -74 -8 -29 -5 -38 -3 -34 5 4 6 -4 3 -19 -6 -20 -14 -26 -14 -26 -4 0 9 -3
10 -8 4 -4 -6 -16 -10 -27 -10 -11 0 -26 -4 -32 -9 -8 -5 -13 -4 -13 3 0 7 -5
9 -12 5 -9 -5 -8 -2 1 9 12 15 12 17 -3 11 -9 -4 -16 -3 -14 2 4 15 -38 95
-45 88 -4 -4 -7 2 -7 14 0 11 -5 22 -10 24 -6 2 -12 13 -13 25 0 12 -4 20 -7
18 -3 -1 -11 3 -18 11 -10 11 -10 14 0 14 11 0 11 2 0 8 -11 8 -25 30 -67 109
-7 13 -15 20 -18 16 -4 -3 -7 3 -7 15 0 12 -4 22 -8 22 -5 0 -14 16 -22 35 -8
19 -17 35 -21 35 -5 0 -16 26 -18 46 0 2 -7 12 -16 20 -8 9 -12 20 -9 26 4 7
2 8 -4 4 -7 -4 -14 3 -18 19 -3 14 -10 25 -16 25 -5 0 -7 4 -3 9 3 5 1 12 -5
16 -6 4 -7 11 -4 17 4 6 2 8 -4 4 -10 -6 -23 17 -21 37 0 5 -10 17 -22 28 -12
10 -18 19 -14 19 5 0 -2 12 -16 27 -18 21 -19 24 -4 13 15 -11 14 -8 -4 13
-14 15 -21 27 -16 27 4 0 -1 8 -11 18 -10 9 -20 24 -22 32 -2 8 -9 18 -15 22
-7 4 -8 8 -3 8 5 0 2 8 -7 18 -10 10 -14 22 -10 25 3 4 1 7 -6 7 -7 0 -9 5 -6
10 3 6 3 10 -2 10 -9 0 -39 61 -35 73 1 4 -2 7 -8 7 -5 0 -10 7 -10 15 0 8 -4
15 -10 15 -5 0 -9 3 -9 8 4 22 -2 42 -11 37 -9 -5 -15 15 -11 38 0 4 -4 7 -9
7 -6 0 -10 7 -10 16 0 8 -4 13 -9 9 -6 -3 -8 4 -6 15 2 11 0 18 -5 15 -5 -3
-12 6 -16 20 -3 14 -10 25 -15 25 -5 0 -9 9 -9 21 0 11 -4 17 -10 14 -9 -5
-12 1 -9 21 0 3 -9 14 -21 24 -13 11 -19 24 -14 31 4 7 3 9 -3 6 -9 -6 -30 24
-21 30 2 2 -7 10 -20 18 -12 9 -20 21 -17 26 4 5 -2 9 -12 10 -10 0 -13 3 -6
5 7 3 0 16 -18 33 -16 16 -29 33 -29 40 0 6 -4 11 -10 11 -5 0 -10 10 -10 22
0 12 -3 18 -7 15 -3 -4 -15 8 -26 26 -11 17 -18 33 -16 35 2 2 -4 8 -13 13
-10 6 -18 17 -18 24 0 8 -4 15 -10 15 -5 0 -10 7 -10 16 0 8 -4 12 -10 9 -5
-3 -10 3 -10 15 0 12 -4 18 -10 15 -5 -3 -10 3 -10 15 0 12 -4 19 -9 16 -5 -3
-12 5 -15 19 -4 14 -11 25 -16 25 -6 0 -10 5 -10 10 0 6 -10 22 -22 35 -60 65
-68 75 -68 85 0 5 -4 10 -9 10 -4 0 -24 20 -43 45 -19 24 -38 42 -42 38 -3 -3
-6 1 -6 10 0 10 -6 17 -14 17 -8 0 -18 9 -21 21 -4 11 -9 18 -12 15 -3 -3 -16
6 -29 19 -13 14 -29 25 -37 25 -7 0 -23 9 -35 20 -12 11 -26 20 -32 20 -5 0
-10 5 -10 11 0 5 -3 8 -7 6 -5 -3 -19 0 -33 6 -26 10 -50 16 -85 20 -11 1 -26
6 -34 11 -10 6 -12 6 -7 -2z m-7504 -7514 c-1 -13 -1 -25 0 -28 1 -3 4 -16 5
-30 9 -61 18 -96 28 -109 10 -12 9 -13 -3 -6 -12 7 -13 6 -4 -6 6 -8 15 -25
19 -39 7 -24 7 -24 -19 5 -24 27 -30 46 -29 83 1 6 -2 12 -6 12 -5 0 -8 128
-2 138 5 10 12 -2 11 -20z m-349 -3260 c1 -7 0 -17 -1 -23 -1 -5 -4 -19 -6
-30 -8 -41 -37 -130 -46 -140 -6 -6 -7 0 -3 15 3 14 8 39 10 55 2 17 5 30 6
30 1 0 3 14 4 30 2 17 4 31 5 33 3 2 7 18 9 32 2 14 21 12 22 -2z m4492 -5971
c3 -8 2 -20 -3 -26 -5 -9 -7 -4 -7 13 0 29 2 32 10 13z"/>
</g>
</svg>
